# Made in Blockbench 3.6.5
mtllib double_extender_1.mtl
o cube
v -0.25 -0.25 -0.25
v -0.25 -0.25 -0.5
v -0.25 -0.5 -0.25
v -0.25 -0.5 -0.5
v -0.5 -0.25 -0.5
v -0.5 -0.25 -0.25
v -0.5 -0.5 -0.5
v -0.5 -0.5 -0.25
vt 0 1
vt 0 0.9375
vt 0.0625 1
vt 0 0.9375
vt 0.0625 0.9375
vt 0.0625 1
vt 0 1
vt 0 0
vt 1 1
vt 0 0
vt 1 0
vt 1 1
vt 0 1
vt 0 0
vt 1 1
vt 0 0
vt 1 0
vt 1 1
vt 0 1
vt 0 0
vt 1 1
vt 0 0
vt 1 0
vt 1 1
vt 0 1
vt 0 0
vt 1 1
vt 0 0
vt 1 0
vt 1 1
vt 0 1
vt 0 0
vt 1 1
vt 0 0
vt 1 0
vt 1 1
vn 1 0 0
vn 1 0 0
vn 1 0 0
vn 1 0 0
vn 1 0 0
vn 1 0 0
vn -1 0 0
vn -1 0 0
vn -1 0 0
vn -1 0 0
vn -1 0 0
vn -1 0 0
vn 0 1 0
vn 0 1 0
vn 0 1 0
vn 0 1 0
vn 0 1 0
vn 0 1 0
vn 0 -1 0
vn 0 -1 0
vn 0 -1 0
vn 0 -1 0
vn 0 -1 0
vn 0 -1 0
vn 0 0 1
vn 0 0 1
vn 0 0 1
vn 0 0 1
vn 0 0 1
vn 0 0 1
vn 0 0 -1
vn 0 0 -1
vn 0 0 -1
vn 0 0 -1
vn 0 0 -1
vn 0 0 -1
usemtl m_0
f 5/7/7 7/8/8 6/9/9
f 7/10/10 8/11/11 6/12/12
usemtl m_0
f 5/13/13 6/14/14 2/15/15
f 6/16/16 1/17/17 2/18/18
usemtl m_0
f 8/19/19 7/20/20 3/21/21
f 7/22/22 4/23/23 3/24/24
usemtl m_0
f 6/25/25 8/26/26 1/27/27
f 8/28/28 3/29/29 1/30/30
usemtl m_0
f 2/31/31 4/32/32 5/33/33
f 4/34/34 7/35/35 5/36/36
o cube
v 0 -0.25 -0.25
v 0 -0.25 -0.5
v 0 -0.5 -0.25
v 0 -0.5 -0.5
v -0.25 -0.25 -0.5
v -0.25 -0.25 -0.25
v -0.25 -0.5 -0.5
v -0.25 -0.5 -0.25
vt 0 1
vt 0 0.9375
vt 0.0625 1
vt 0 0.9375
vt 0.0625 0.9375
vt 0.0625 1
vt 0 1
vt 0 0.9375
vt 0.0625 1
vt 0 0.9375
vt 0.0625 0.9375
vt 0.0625 1
vt 0 1
vt 0 0.9375
vt 0.0625 1
vt 0 0.9375
vt 0.0625 0.9375
vt 0.0625 1
vt 0 1
vt 0 0
vt 1 1
vt 0 0
vt 1 0
vt 1 1
vt 0 1
vt 0 0
vt 1 1
vt 0 0
vt 1 0
vt 1 1
vt 0 1
vt 0 0
vt 1 1
vt 0 0
vt 1 0
vt 1 1
vn 1 0 0
vn 1 0 0
vn 1 0 0
vn 1 0 0
vn 1 0 0
vn 1 0 0
vn -1 0 0
vn -1 0 0
vn -1 0 0
vn -1 0 0
vn -1 0 0
vn -1 0 0
vn 0 1 0
vn 0 1 0
vn 0 1 0
vn 0 1 0
vn 0 1 0
vn 0 1 0
vn 0 -1 0
vn 0 -1 0
vn 0 -1 0
vn 0 -1 0
vn 0 -1 0
vn 0 -1 0
vn 0 0 1
vn 0 0 1
vn 0 0 1
vn 0 0 1
vn 0 0 1
vn 0 0 1
vn 0 0 -1
vn 0 0 -1
vn 0 0 -1
vn 0 0 -1
vn 0 0 -1
vn 0 0 -1
usemtl m_0
f 16/55/55 15/56/56 11/57/57
f 15/58/58 12/59/59 11/60/60
usemtl m_0
f 14/61/61 16/62/62 9/63/63
f 16/64/64 11/65/65 9/66/66
usemtl m_0
f 10/67/67 12/68/68 13/69/69
f 12/70/70 15/71/71 13/72/72
o cube
v 0.25 -0.25 -0.25
v 0.25 -0.25 -0.5
v 0.25 -0.5 -0.25
v 0.25 -0.5 -0.5
v 0 -0.25 -0.5
v 0 -0.25 -0.25
v 0 -0.5 -0.5
v 0 -0.5 -0.25
vt 0 1
vt 0 0
vt 1 1
vt 0 0
vt 1 0
vt 1 1
vt 0 1
vt 0 0.9375
vt 0.0625 1
vt 0 0.9375
vt 0.0625 0.9375
vt 0.0625 1
vt 0 1
vt 0 0.9375
vt 0.0625 1
vt 0 0.9375
vt 0.0625 0.9375
vt 0.0625 1
vt 0 1
vt 0 0
vt 1 1
vt 0 0
vt 1 0
vt 1 1
vt 0 1
vt 0 0
vt 1 1
vt 0 0
vt 1 0
vt 1 1
vt 0 1
vt 0 0
vt 1 1
vt 0 0
vt 1 0
vt 1 1
vn 1 0 0
vn 1 0 0
vn 1 0 0
vn 1 0 0
vn 1 0 0
vn 1 0 0
vn -1 0 0
vn -1 0 0
vn -1 0 0
vn -1 0 0
vn -1 0 0
vn -1 0 0
vn 0 1 0
vn 0 1 0
vn 0 1 0
vn 0 1 0
vn 0 1 0
vn 0 1 0
vn 0 -1 0
vn 0 -1 0
vn 0 -1 0
vn 0 -1 0
vn 0 -1 0
vn 0 -1 0
vn 0 0 1
vn 0 0 1
vn 0 0 1
vn 0 0 1
vn 0 0 1
vn 0 0 1
vn 0 0 -1
vn 0 0 -1
vn 0 0 -1
vn 0 0 -1
vn 0 0 -1
vn 0 0 -1
usemtl m_0
f 17/73/73 19/74/74 18/75/75
f 19/76/76 20/77/77 18/78/78
usemtl m_0
f 24/91/91 23/92/92 19/93/93
f 23/94/94 20/95/95 19/96/96
usemtl m_0
f 22/97/97 24/98/98 17/99/99
f 24/100/100 19/101/101 17/102/102
usemtl m_0
f 18/103/103 20/104/104 21/105/105
f 20/106/106 23/107/107 21/108/108
o cube
v 0.25 0 -0.25
v 0.25 0 -0.5
v 0.25 -0.25 -0.25
v 0.25 -0.25 -0.5
v 0 0 -0.5
v 0 0 -0.25
v 0 -0.25 -0.5
v 0 -0.25 -0.25
vt 0 1
vt 0 0
vt 1 1
vt 0 0
vt 1 0
vt 1 1
vt 0 1
vt 0 0
vt 1 1
vt 0 0
vt 1 0
vt 1 1
vt 0 1
vt 0 0.9375
vt 0.0625 1
vt 0 0.9375
vt 0.0625 0.9375
vt 0.0625 1
vt 0 1
vt 0 0.9375
vt 0.0625 1
vt 0 0.9375
vt 0.0625 0.9375
vt 0.0625 1
vt 0 1
vt 0 0
vt 1 1
vt 0 0
vt 1 0
vt 1 1
vt 0 1
vt 0 0
vt 1 1
vt 0 0
vt 1 0
vt 1 1
vn 1 0 0
vn 1 0 0
vn 1 0 0
vn 1 0 0
vn 1 0 0
vn 1 0 0
vn -1 0 0
vn -1 0 0
vn -1 0 0
vn -1 0 0
vn -1 0 0
vn -1 0 0
vn 0 1 0
vn 0 1 0
vn 0 1 0
vn 0 1 0
vn 0 1 0
vn 0 1 0
vn 0 -1 0
vn 0 -1 0
vn 0 -1 0
vn 0 -1 0
vn 0 -1 0
vn 0 -1 0
vn 0 0 1
vn 0 0 1
vn 0 0 1
vn 0 0 1
vn 0 0 1
vn 0 0 1
vn 0 0 -1
vn 0 0 -1
vn 0 0 -1
vn 0 0 -1
vn 0 0 -1
vn 0 0 -1
usemtl m_2
f 25/109/109 27/110/110 26/111/111
f 27/112/112 28/113/113 26/114/114
usemtl m_2
f 29/115/115 31/116/116 30/117/117
f 31/118/118 32/119/119 30/120/120
usemtl m_2
f 30/133/133 32/134/134 25/135/135
f 32/136/136 27/137/137 25/138/138
usemtl m_2
f 26/139/139 28/140/140 29/141/141
f 28/142/142 31/143/143 29/144/144
o cube
v 0 0.25 -0.25
v 0 0.25 -0.5
v 0 0 -0.25
v 0 0 -0.5
v -0.25 0.25 -0.5
v -0.25 0.25 -0.25
v -0.25 0 -0.5
v -0.25 0 -0.25
vt 0 1
vt 0 0.9375
vt 0.0625 1
vt 0 0.9375
vt 0.0625 0.9375
vt 0.0625 1
vt 1 1
vt 0 1
vt 1 0
vt 0 1
vt 0 0
vt 1 0
vt 0 1
vt 0 0.9375
vt 0.0625 1
vt 0 0.9375
vt 0.0625 0.9375
vt 0.0625 1
vt 1 0
vt 1 1
vt 0 0
vt 1 1
vt 0 1
vt 0 0
vt 0 1
vt 0 0
vt 1 1
vt 0 0
vt 1 0
vt 1 1
vt 1 1
vt 1 0
vt 0 1
vt 1 0
vt 0 0
vt 0 1
vn 1 0 0
vn 1 0 0
vn 1 0 0
vn 1 0 0
vn 1 0 0
vn 1 0 0
vn -1 0 0
vn -1 0 0
vn -1 0 0
vn -1 0 0
vn -1 0 0
vn -1 0 0
vn 0 1 0
vn 0 1 0
vn 0 1 0
vn 0 1 0
vn 0 1 0
vn 0 1 0
vn 0 -1 0
vn 0 -1 0
vn 0 -1 0
vn 0 -1 0
vn 0 -1 0
vn 0 -1 0
vn 0 0 1
vn 0 0 1
vn 0 0 1
vn 0 0 1
vn 0 0 1
vn 0 0 1
vn 0 0 -1
vn 0 0 -1
vn 0 0 -1
vn 0 0 -1
vn 0 0 -1
vn 0 0 -1
usemtl m_5
f 37/151/151 39/152/152 38/153/153
f 39/154/154 40/155/155 38/156/156
usemtl m_4
f 40/163/163 39/164/164 35/165/165
f 39/166/166 36/167/167 35/168/168
usemtl m_7
f 38/169/169 40/170/170 33/171/171
f 40/172/172 35/173/173 33/174/174
usemtl m_7
f 34/175/175 36/176/176 37/177/177
f 36/178/178 39/179/179 37/180/180
o cube
v 0.25 0.25 -0.25
v 0.25 0.25 -0.5
v 0.25 0 -0.25
v 0.25 0 -0.5
v 0 0.25 -0.5
v 0 0.25 -0.25
v 0 0 -0.5
v 0 0 -0.25
vt 0 1
vt 0 0
vt 1 1
vt 0 0
vt 1 0
vt 1 1
vt 0 1
vt 0 0.9375
vt 0.0625 1
vt 0 0.9375
vt 0.0625 0.9375
vt 0.0625 1
vt 0 1
vt 0 0.9375
vt 0.0625 1
vt 0 0.9375
vt 0.0625 0.9375
vt 0.0625 1
vt 0 1
vt 0 0.9375
vt 0.0625 1
vt 0 0.9375
vt 0.0625 0.9375
vt 0.0625 1
vt 0 1
vt 0 0
vt 1 1
vt 0 0
vt 1 0
vt 1 1
vt 0 1
vt 0 0
vt 1 1
vt 0 0
vt 1 0
vt 1 1
vn 1 0 0
vn 1 0 0
vn 1 0 0
vn 1 0 0
vn 1 0 0
vn 1 0 0
vn -1 0 0
vn -1 0 0
vn -1 0 0
vn -1 0 0
vn -1 0 0
vn -1 0 0
vn 0 1 0
vn 0 1 0
vn 0 1 0
vn 0 1 0
vn 0 1 0
vn 0 1 0
vn 0 -1 0
vn 0 -1 0
vn 0 -1 0
vn 0 -1 0
vn 0 -1 0
vn 0 -1 0
vn 0 0 1
vn 0 0 1
vn 0 0 1
vn 0 0 1
vn 0 0 1
vn 0 0 1
vn 0 0 -1
vn 0 0 -1
vn 0 0 -1
vn 0 0 -1
vn 0 0 -1
vn 0 0 -1
usemtl m_2
f 41/181/181 43/182/182 42/183/183
f 43/184/184 44/185/185 42/186/186
usemtl m_2
f 46/205/205 48/206/206 41/207/207
f 48/208/208 43/209/209 41/210/210
usemtl m_2
f 42/211/211 44/212/212 45/213/213
f 44/214/214 47/215/215 45/216/216
o cube
v 0 0.5 -0.25
v 0 0.5 -0.5
v 0 0.25 -0.25
v 0 0.25 -0.5
v -0.25 0.5 -0.5
v -0.25 0.5 -0.25
v -0.25 0.25 -0.5
v -0.25 0.25 -0.25
vt 0 1
vt 0 0.9375
vt 0.0625 1
vt 0 0.9375
vt 0.0625 0.9375
vt 0.0625 1
vt 0 1
vt 0 0
vt 1 1
vt 0 0
vt 1 0
vt 1 1
vt 0 1
vt 0 0
vt 1 1
vt 0 0
vt 1 0
vt 1 1
vt 0 1
vt 0 0.9375
vt 0.0625 1
vt 0 0.9375
vt 0.0625 0.9375
vt 0.0625 1
vt 0 1
vt 0 0
vt 1 1
vt 0 0
vt 1 0
vt 1 1
vt 0 1
vt 0 0
vt 1 1
vt 0 0
vt 1 0
vt 1 1
vn 1 0 0
vn 1 0 0
vn 1 0 0
vn 1 0 0
vn 1 0 0
vn 1 0 0
vn -1 0 0
vn -1 0 0
vn -1 0 0
vn -1 0 0
vn -1 0 0
vn -1 0 0
vn 0 1 0
vn 0 1 0
vn 0 1 0
vn 0 1 0
vn 0 1 0
vn 0 1 0
vn 0 -1 0
vn 0 -1 0
vn 0 -1 0
vn 0 -1 0
vn 0 -1 0
vn 0 -1 0
vn 0 0 1
vn 0 0 1
vn 0 0 1
vn 0 0 1
vn 0 0 1
vn 0 0 1
vn 0 0 -1
vn 0 0 -1
vn 0 0 -1
vn 0 0 -1
vn 0 0 -1
vn 0 0 -1
usemtl m_0
f 53/223/223 55/224/224 54/225/225
f 55/226/226 56/227/227 54/228/228
usemtl m_0
f 53/229/229 54/230/230 50/231/231
f 54/232/232 49/233/233 50/234/234
usemtl m_0
f 54/241/241 56/242/242 49/243/243
f 56/244/244 51/245/245 49/246/246
usemtl m_0
f 50/247/247 52/248/248 53/249/249
f 52/250/250 55/251/251 53/252/252
o cube
v 0.25 0.5 -0.25
v 0.25 0.5 -0.5
v 0.25 0.25 -0.25
v 0.25 0.25 -0.5
v 0 0.5 -0.5
v 0 0.5 -0.25
v 0 0.25 -0.5
v 0 0.25 -0.25
vt 0 1
vt 0 0
vt 1 1
vt 0 0
vt 1 0
vt 1 1
vt 0 1
vt 0 0.9375
vt 0.0625 1
vt 0 0.9375
vt 0.0625 0.9375
vt 0.0625 1
vt 0 1
vt 0 0
vt 1 1
vt 0 0
vt 1 0
vt 1 1
vt 0 1
vt 0 0.9375
vt 0.0625 1
vt 0 0.9375
vt 0.0625 0.9375
vt 0.0625 1
vt 0 1
vt 0 0
vt 1 1
vt 0 0
vt 1 0
vt 1 1
vt 0 1
vt 0 0
vt 1 1
vt 0 0
vt 1 0
vt 1 1
vn 1 0 0
vn 1 0 0
vn 1 0 0
vn 1 0 0
vn 1 0 0
vn 1 0 0
vn -1 0 0
vn -1 0 0
vn -1 0 0
vn -1 0 0
vn -1 0 0
vn -1 0 0
vn 0 1 0
vn 0 1 0
vn 0 1 0
vn 0 1 0
vn 0 1 0
vn 0 1 0
vn 0 -1 0
vn 0 -1 0
vn 0 -1 0
vn 0 -1 0
vn 0 -1 0
vn 0 -1 0
vn 0 0 1
vn 0 0 1
vn 0 0 1
vn 0 0 1
vn 0 0 1
vn 0 0 1
vn 0 0 -1
vn 0 0 -1
vn 0 0 -1
vn 0 0 -1
vn 0 0 -1
vn 0 0 -1
usemtl m_0
f 57/253/253 59/254/254 58/255/255
f 59/256/256 60/257/257 58/258/258
usemtl m_0
f 61/265/265 62/266/266 58/267/267
f 62/268/268 57/269/269 58/270/270
usemtl m_0
f 62/277/277 64/278/278 57/279/279
f 64/280/280 59/281/281 57/282/282
usemtl m_0
f 58/283/283 60/284/284 61/285/285
f 60/286/286 63/287/287 61/288/288
o cube
v -0.25 -0.24603124999999998 -0.25
v -0.25 -0.24603124999999998 -0.5
v -0.25 -0.24609375 -0.25
v -0.25 -0.24609375 -0.5
v -0.375 -0.24603124999999998 -0.5
v -0.375 -0.24603124999999998 -0.25
v -0.375 -0.24609375 -0.5
v -0.375 -0.24609375 -0.25
vt 0 1
vt 0 0.9375
vt 0.0625 1
vt 0 0.9375
vt 0.0625 0.9375
vt 0.0625 1
vt 0 1
vt 0 0.9375
vt 0.0625 1
vt 0 0.9375
vt 0.0625 0.9375
vt 0.0625 1
vt 1 0.5
vt 0 0.5
vt 1 0
vt 0 0.5
vt 0 0
vt 1 0
vt 0 1
vt 0 0.9375
vt 0.0625 1
vt 0 0.9375
vt 0.0625 0.9375
vt 0.0625 1
vt 0 1
vt 0 0.9375
vt 0.0625 1
vt 0 0.9375
vt 0.0625 0.9375
vt 0.0625 1
vt 0 1
vt 0 0.9375
vt 0.0625 1
vt 0 0.9375
vt 0.0625 0.9375
vt 0.0625 1
vn 1 0 0
vn 1 0 0
vn 1 0 0
vn 1 0 0
vn 1 0 0
vn 1 0 0
vn -1 0 0
vn -1 0 0
vn -1 0 0
vn -1 0 0
vn -1 0 0
vn -1 0 0
vn 0 1 0
vn 0 1 0
vn 0 1 0
vn 0 1 0
vn 0 1 0
vn 0 1 0
vn 0 -1 0
vn 0 -1 0
vn 0 -1 0
vn 0 -1 0
vn 0 -1 0
vn 0 -1 0
vn 0 0 1
vn 0 0 1
vn 0 0 1
vn 0 0 1
vn 0 0 1
vn 0 0 1
vn 0 0 -1
vn 0 0 -1
vn 0 0 -1
vn 0 0 -1
vn 0 0 -1
vn 0 0 -1
usemtl m_8
f 69/301/301 70/302/302 66/303/303
f 70/304/304 65/305/305 66/306/306
o cube
v -0.25 -0.24603124999999998 -0.25
v -0.25 -0.24603124999999998 -0.5
v -0.25 -0.24609375 -0.25
v -0.25 -0.24609375 -0.5
v -0.375 -0.24603124999999998 -0.5
v -0.375 -0.24603124999999998 -0.25
v -0.375 -0.24609375 -0.5
v -0.375 -0.24609375 -0.25
vt 0 1
vt 0 0.9375
vt 0.0625 1
vt 0 0.9375
vt 0.0625 0.9375
vt 0.0625 1
vt 0 1
vt 0 0.9375
vt 0.0625 1
vt 0 0.9375
vt 0.0625 0.9375
vt 0.0625 1
vt 1 0.5
vt 0 0.5
vt 1 0
vt 0 0.5
vt 0 0
vt 1 0
vt 0 1
vt 0 0.9375
vt 0.0625 1
vt 0 0.9375
vt 0.0625 0.9375
vt 0.0625 1
vt 0 1
vt 0 0.9375
vt 0.0625 1
vt 0 0.9375
vt 0.0625 0.9375
vt 0.0625 1
vt 0 1
vt 0 0.9375
vt 0.0625 1
vt 0 0.9375
vt 0.0625 0.9375
vt 0.0625 1
vn 1 0 0
vn 1 0 0
vn 1 0 0
vn 1 0 0
vn 1 0 0
vn 1 0 0
vn -1 0 0
vn -1 0 0
vn -1 0 0
vn -1 0 0
vn -1 0 0
vn -1 0 0
vn 0 1 0
vn 0 1 0
vn 0 1 0
vn 0 1 0
vn 0 1 0
vn 0 1 0
vn 0 -1 0
vn 0 -1 0
vn 0 -1 0
vn 0 -1 0
vn 0 -1 0
vn 0 -1 0
vn 0 0 1
vn 0 0 1
vn 0 0 1
vn 0 0 1
vn 0 0 1
vn 0 0 1
vn 0 0 -1
vn 0 0 -1
vn 0 0 -1
vn 0 0 -1
vn 0 0 -1
vn 0 0 -1
usemtl m_9
f 77/337/337 78/338/338 74/339/339
f 78/340/340 73/341/341 74/342/342
o cube
v -0.375 -0.24603124999999998 -0.25
v -0.375 -0.24603124999999998 -0.5
v -0.375 -0.24609375 -0.25
v -0.375 -0.24609375 -0.5
v -0.5 -0.24603124999999998 -0.5
v -0.5 -0.24603124999999998 -0.25
v -0.5 -0.24609375 -0.5
v -0.5 -0.24609375 -0.25
vt 0 1
vt 0 0.9375
vt 0.0625 1
vt 0 0.9375
vt 0.0625 0.9375
vt 0.0625 1
vt 0 1
vt 0 0.9375
vt 0.0625 1
vt 0 0.9375
vt 0.0625 0.9375
vt 0.0625 1
vt 1 1
vt 0 1
vt 1 0.5
vt 0 1
vt 0 0.5
vt 1 0.5
vt 0 1
vt 0 0.9375
vt 0.0625 1
vt 0 0.9375
vt 0.0625 0.9375
vt 0.0625 1
vt 0 1
vt 0 0.9375
vt 0.0625 1
vt 0 0.9375
vt 0.0625 0.9375
vt 0.0625 1
vt 0 1
vt 0 0.9375
vt 0.0625 1
vt 0 0.9375
vt 0.0625 0.9375
vt 0.0625 1
vn 1 0 0
vn 1 0 0
vn 1 0 0
vn 1 0 0
vn 1 0 0
vn 1 0 0
vn -1 0 0
vn -1 0 0
vn -1 0 0
vn -1 0 0
vn -1 0 0
vn -1 0 0
vn 0 1 0
vn 0 1 0
vn 0 1 0
vn 0 1 0
vn 0 1 0
vn 0 1 0
vn 0 -1 0
vn 0 -1 0
vn 0 -1 0
vn 0 -1 0
vn 0 -1 0
vn 0 -1 0
vn 0 0 1
vn 0 0 1
vn 0 0 1
vn 0 0 1
vn 0 0 1
vn 0 0 1
vn 0 0 -1
vn 0 0 -1
vn 0 0 -1
vn 0 0 -1
vn 0 0 -1
vn 0 0 -1
usemtl m_8
f 85/373/373 86/374/374 82/375/375
f 86/376/376 81/377/377 82/378/378
o cube
v -0.375 -0.24603124999999998 -0.25
v -0.375 -0.24603124999999998 -0.5
v -0.375 -0.24609375 -0.25
v -0.375 -0.24609375 -0.5
v -0.5 -0.24603124999999998 -0.5
v -0.5 -0.24603124999999998 -0.25
v -0.5 -0.24609375 -0.5
v -0.5 -0.24609375 -0.25
vt 0 1
vt 0 0.9375
vt 0.0625 1
vt 0 0.9375
vt 0.0625 0.9375
vt 0.0625 1
vt 0 1
vt 0 0.9375
vt 0.0625 1
vt 0 0.9375
vt 0.0625 0.9375
vt 0.0625 1
vt 1 1
vt 0 1
vt 1 0.5
vt 0 1
vt 0 0.5
vt 1 0.5
vt 0 1
vt 0 0.9375
vt 0.0625 1
vt 0 0.9375
vt 0.0625 0.9375
vt 0.0625 1
vt 0 1
vt 0 0.9375
vt 0.0625 1
vt 0 0.9375
vt 0.0625 0.9375
vt 0.0625 1
vt 0 1
vt 0 0.9375
vt 0.0625 1
vt 0 0.9375
vt 0.0625 0.9375
vt 0.0625 1
vn 1 0 0
vn 1 0 0
vn 1 0 0
vn 1 0 0
vn 1 0 0
vn 1 0 0
vn -1 0 0
vn -1 0 0
vn -1 0 0
vn -1 0 0
vn -1 0 0
vn -1 0 0
vn 0 1 0
vn 0 1 0
vn 0 1 0
vn 0 1 0
vn 0 1 0
vn 0 1 0
vn 0 -1 0
vn 0 -1 0
vn 0 -1 0
vn 0 -1 0
vn 0 -1 0
vn 0 -1 0
vn 0 0 1
vn 0 0 1
vn 0 0 1
vn 0 0 1
vn 0 0 1
vn 0 0 1
vn 0 0 -1
vn 0 0 -1
vn 0 0 -1
vn 0 0 -1
vn 0 0 -1
vn 0 0 -1
usemtl m_9
f 93/409/409 94/410/410 90/411/411
f 94/412/412 89/413/413 90/414/414
o cube
v 0 -0.21875 -0.25
v 0 -0.21875 -0.5
v 0 -0.25 -0.25
v 0 -0.25 -0.5
v -0.25 -0.21875 -0.5
v -0.25 -0.21875 -0.25
v -0.25 -0.25 -0.5
v -0.25 -0.25 -0.25
vt 0 1
vt 0 0.9375
vt 0.0625 1
vt 0 0.9375
vt 0.0625 0.9375
vt 0.0625 1
vt 0 0.125
vt 0 0
vt 1 0.125
vt 0 0
vt 1 0
vt 1 0.125
vt 0 0
vt 1 0
vt 0 1
vt 1 0
vt 1 1
vt 0 1
vt 0 1
vt 0 0.9375
vt 0.0625 1
vt 0 0.9375
vt 0.0625 0.9375
vt 0.0625 1
vt 0 0.125
vt 0 0
vt 1 0.125
vt 0 0
vt 1 0
vt 1 0.125
vt 0 0.125
vt 0 0
vt 1 0.125
vt 0 0
vt 1 0
vt 1 0.125
vn 1 0 0
vn 1 0 0
vn 1 0 0
vn 1 0 0
vn 1 0 0
vn 1 0 0
vn -1 0 0
vn -1 0 0
vn -1 0 0
vn -1 0 0
vn -1 0 0
vn -1 0 0
vn 0 1 0
vn 0 1 0
vn 0 1 0
vn 0 1 0
vn 0 1 0
vn 0 1 0
vn 0 -1 0
vn 0 -1 0
vn 0 -1 0
vn 0 -1 0
vn 0 -1 0
vn 0 -1 0
vn 0 0 1
vn 0 0 1
vn 0 0 1
vn 0 0 1
vn 0 0 1
vn 0 0 1
vn 0 0 -1
vn 0 0 -1
vn 0 0 -1
vn 0 0 -1
vn 0 0 -1
vn 0 0 -1
usemtl m_10
f 101/439/439 103/440/440 102/441/441
f 103/442/442 104/443/443 102/444/444
usemtl m_11
f 101/445/445 102/446/446 98/447/447
f 102/448/448 97/449/449 98/450/450
usemtl m_10
f 102/457/457 104/458/458 97/459/459
f 104/460/460 99/461/461 97/462/462
usemtl m_10
f 98/463/463 100/464/464 101/465/465
f 100/466/466 103/467/467 101/468/468
o cube
v -0.1875 -0.140625 -0.359375
v -0.1875 -0.140625 -0.390625
v -0.1875 -0.21875 -0.359375
v -0.1875 -0.21875 -0.390625
v -0.21875 -0.140625 -0.390625
v -0.21875 -0.140625 -0.359375
v -0.21875 -0.21875 -0.390625
v -0.21875 -0.21875 -0.359375
vt 0.4375 0.625
vt 0.4375 0.3125
vt 0.5625 0.625
vt 0.4375 0.3125
vt 0.5625 0.3125
vt 0.5625 0.625
vt 0.4375 0.625
vt 0.4375 0.3125
vt 0.5625 0.625
vt 0.4375 0.3125
vt 0.5625 0.3125
vt 0.5625 0.625
vt 0.4375 0.5
vt 0.5625 0.5
vt 0.4375 0.625
vt 0.5625 0.5
vt 0.5625 0.625
vt 0.4375 0.625
vt 0.5625 0.1875
vt 0.4375 0.1875
vt 0.5625 0.0625
vt 0.4375 0.1875
vt 0.4375 0.0625
vt 0.5625 0.0625
vt 0.4375 0.625
vt 0.4375 0.3125
vt 0.5625 0.625
vt 0.4375 0.3125
vt 0.5625 0.3125
vt 0.5625 0.625
vt 0.4375 0.625
vt 0.4375 0.3125
vt 0.5625 0.625
vt 0.4375 0.3125
vt 0.5625 0.3125
vt 0.5625 0.625
vn 1 0 0
vn 1 0 0
vn 1 0 0
vn 1 0 0
vn 1 0 0
vn 1 0 0
vn -1 0 0
vn -1 0 0
vn -1 0 0
vn -1 0 0
vn -1 0 0
vn -1 0 0
vn 0 1 0
vn 0 1 0
vn 0 1 0
vn 0 1 0
vn 0 1 0
vn 0 1 0
vn 0 -1 0
vn 0 -1 0
vn 0 -1 0
vn 0 -1 0
vn 0 -1 0
vn 0 -1 0
vn 0 0 1
vn 0 0 1
vn 0 0 1
vn 0 0 1
vn 0 0 1
vn 0 0 1
vn 0 0 -1
vn 0 0 -1
vn 0 0 -1
vn 0 0 -1
vn 0 0 -1
vn 0 0 -1
usemtl m_12
f 105/469/469 107/470/470 106/471/471
f 107/472/472 108/473/473 106/474/474
usemtl m_12
f 109/475/475 111/476/476 110/477/477
f 111/478/478 112/479/479 110/480/480
usemtl m_12
f 109/481/481 110/482/482 106/483/483
f 110/484/484 105/485/485 106/486/486
usemtl m_12
f 112/487/487 111/488/488 107/489/489
f 111/490/490 108/491/491 107/492/492
usemtl m_12
f 110/493/493 112/494/494 105/495/495
f 112/496/496 107/497/497 105/498/498
usemtl m_12
f 106/499/499 108/500/500 109/501/501
f 108/502/502 111/503/503 109/504/504
o cube
v -0.03125 -0.140625 -0.359375
v -0.03125 -0.140625 -0.390625
v -0.03125 -0.21875 -0.359375
v -0.03125 -0.21875 -0.390625
v -0.0625 -0.140625 -0.390625
v -0.0625 -0.140625 -0.359375
v -0.0625 -0.21875 -0.390625
v -0.0625 -0.21875 -0.359375
vt 0.4375 0.625
vt 0.4375 0.3125
vt 0.5625 0.625
vt 0.4375 0.3125
vt 0.5625 0.3125
vt 0.5625 0.625
vt 0.4375 0.625
vt 0.4375 0.3125
vt 0.5625 0.625
vt 0.4375 0.3125
vt 0.5625 0.3125
vt 0.5625 0.625
vt 0.4375 0.5
vt 0.5625 0.5
vt 0.4375 0.625
vt 0.5625 0.5
vt 0.5625 0.625
vt 0.4375 0.625
vt 0.5625 0.1875
vt 0.4375 0.1875
vt 0.5625 0.0625
vt 0.4375 0.1875
vt 0.4375 0.0625
vt 0.5625 0.0625
vt 0.4375 0.625
vt 0.4375 0.3125
vt 0.5625 0.625
vt 0.4375 0.3125
vt 0.5625 0.3125
vt 0.5625 0.625
vt 0.4375 0.625
vt 0.4375 0.3125
vt 0.5625 0.625
vt 0.4375 0.3125
vt 0.5625 0.3125
vt 0.5625 0.625
vn 1 0 0
vn 1 0 0
vn 1 0 0
vn 1 0 0
vn 1 0 0
vn 1 0 0
vn -1 0 0
vn -1 0 0
vn -1 0 0
vn -1 0 0
vn -1 0 0
vn -1 0 0
vn 0 1 0
vn 0 1 0
vn 0 1 0
vn 0 1 0
vn 0 1 0
vn 0 1 0
vn 0 -1 0
vn 0 -1 0
vn 0 -1 0
vn 0 -1 0
vn 0 -1 0
vn 0 -1 0
vn 0 0 1
vn 0 0 1
vn 0 0 1
vn 0 0 1
vn 0 0 1
vn 0 0 1
vn 0 0 -1
vn 0 0 -1
vn 0 0 -1
vn 0 0 -1
vn 0 0 -1
vn 0 0 -1
usemtl m_12
f 113/505/505 115/506/506 114/507/507
f 115/508/508 116/509/509 114/510/510
usemtl m_12
f 117/511/511 119/512/512 118/513/513
f 119/514/514 120/515/515 118/516/516
usemtl m_12
f 117/517/517 118/518/518 114/519/519
f 118/520/520 113/521/521 114/522/522
usemtl m_12
f 120/523/523 119/524/524 115/525/525
f 119/526/526 116/527/527 115/528/528
usemtl m_12
f 118/529/529 120/530/530 113/531/531
f 120/532/532 115/533/533 113/534/534
usemtl m_12
f 114/535/535 116/536/536 117/537/537
f 116/538/538 119/539/539 117/540/540
