{"asset":{"generator":"3D Builder","version":"2.0"},"scene":0,"scenes":[{"nodes":[0]}],"nodes":[{"children":[1,2,3,4,5,6,7]},{"mesh":0,"matrix":[1,0,0,0,0,-1.1920928955078125E-7,-0.99999988079071045,0,0,0.99999988079071045,-1.1920928955078125E-7,0,0,0,0,1]},{"mesh":1,"matrix":[1,0,0,0,0,-1.1920928955078125E-7,-0.99999988079071045,0,0,0.99999988079071045,-1.1920928955078125E-7,0,0,0,0,1]},{"mesh":2,"matrix":[1,0,0,0,0,-1.1920928955078125E-7,-0.99999988079071045,0,0,0.99999988079071045,-1.1920928955078125E-7,0,0,0,0,1]},{"mesh":3,"matrix":[1,0,0,0,0,-1.1920928955078125E-7,-0.99999988079071045,0,0,0.99999988079071045,-1.1920928955078125E-7,0,0,0,0,1]},{"mesh":4,"matrix":[1,0,0,0,0,-1.1920928955078125E-7,-0.99999988079071045,0,0,0.99999988079071045,-1.1920928955078125E-7,0,0,0,0,1]},{"mesh":5,"matrix":[1,0,0,0,0,-1.1920928955078125E-7,-0.99999988079071045,0,0,0.99999988079071045,-1.1920928955078125E-7,0,0,0,0,1]},{"mesh":6,"matrix":[1,0,0,0,0,-1.1920928955078125E-7,-0.99999988079071045,0,0,0.99999988079071045,-1.1920928955078125E-7,0,0,0,0,1]}],"meshes":[{"primitives":[{"attributes":{"POSITION":0,"TEXCOORD_0":3},"mode":4,"indices":6,"material":0},{"attributes":{"POSITION":1,"TEXCOORD_0":4},"mode":4,"indices":7,"material":1},{"attributes":{"POSITION":2,"TEXCOORD_0":5},"mode":4,"indices":8,"material":2}]},{"primitives":[{"attributes":{"POSITION":9,"TEXCOORD_0":12},"mode":4,"indices":15,"material":3},{"attributes":{"POSITION":10,"TEXCOORD_0":13},"mode":4,"indices":16,"material":1},{"attributes":{"POSITION":11,"TEXCOORD_0":14},"mode":4,"indices":17,"material":2}]},{"primitives":[{"attributes":{"POSITION":18,"TEXCOORD_0":20},"mode":4,"indices":22,"material":2},{"attributes":{"POSITION":19,"TEXCOORD_0":21},"mode":4,"indices":23,"material":1}]},{"primitives":[{"attributes":{"POSITION":24,"TEXCOORD_0":26},"mode":4,"indices":28,"material":0},{"attributes":{"POSITION":25,"TEXCOORD_0":27},"mode":4,"indices":29,"material":2}]},{"primitives":[{"attributes":{"POSITION":30,"TEXCOORD_0":33},"mode":4,"indices":36,"material":2},{"attributes":{"POSITION":31,"TEXCOORD_0":34},"mode":4,"indices":37,"material":3},{"attributes":{"POSITION":32,"TEXCOORD_0":35},"mode":4,"indices":38,"material":1}]},{"primitives":[{"attributes":{"POSITION":39,"TEXCOORD_0":42},"mode":4,"indices":45,"material":3},{"attributes":{"POSITION":40,"TEXCOORD_0":43},"mode":4,"indices":46,"material":1},{"attributes":{"POSITION":41,"TEXCOORD_0":44},"mode":4,"indices":47,"material":2}]},{"primitives":[{"attributes":{"POSITION":48,"TEXCOORD_0":49},"mode":4,"indices":50,"material":4}]}],"materials":[{"pbrMetallicRoughness":{"baseColorFactor":[1,1,1,1],"metallicFactor":0,"roughnessFactor":1,"baseColorTexture":{"index":0,"texCoord":0}},"alphaMode":"OPAQUE"},{"pbrMetallicRoughness":{"baseColorFactor":[1,1,1,1],"metallicFactor":0,"roughnessFactor":1,"baseColorTexture":{"index":1,"texCoord":0}},"alphaMode":"OPAQUE"},{"pbrMetallicRoughness":{"baseColorFactor":[1,1,1,1],"metallicFactor":0,"roughnessFactor":1,"baseColorTexture":{"index":2,"texCoord":0}},"alphaMode":"OPAQUE"},{"pbrMetallicRoughness":{"baseColorFactor":[1,1,1,1],"metallicFactor":0,"roughnessFactor":1,"baseColorTexture":{"index":3,"texCoord":0}},"alphaMode":"OPAQUE"},{"pbrMetallicRoughness":{"baseColorFactor":[1,1,1,1],"metallicFactor":0,"roughnessFactor":1,"baseColorTexture":{"index":4,"texCoord":0}},"alphaMode":"OPAQUE"}],"textures":[{"source":0,"sampler":0},{"source":1,"sampler":0},{"source":2,"sampler":0},{"source":3,"sampler":0},{"source":4,"sampler":0}],"images":[{"uri":"../textures/observer_front.png"},{"uri":"../textures/observer_top.png"},{"uri":"../textures/observer_side.png"},{"uri":"../textures/observer_back.png"},{"uri":"../textures/stone.png"}],"samplers":[{"magFilter":9729,"wrapS":10497,"wrapT":10497}],"accessors":[{"bufferView":0,"byteOffset":0,"count":4,"componentType":5126,"type":"VEC3","min":[0.00634999992325902,0,0],"max":[0.00634999992325902,0.00634999992325902,0.00634999992325902]},{"bufferView":0,"byteOffset":48,"count":4,"componentType":5126,"type":"VEC3","min":[0.00634999992325902,0,0],"max":[0.01269999984651804,0,0.00634999992325902]},{"bufferView":0,"byteOffset":96,"count":8,"componentType":5126,"type":"VEC3","min":[0.00634999992325902,0,0],"max":[0.01269999984651804,0.00634999992325902,0.00634999992325902]},{"bufferView":1,"byteOffset":0,"count":4,"componentType":5126,"type":"VEC2"},{"bufferView":1,"byteOffset":32,"count":4,"componentType":5126,"type":"VEC2"},{"bufferView":1,"byteOffset":64,"count":8,"componentType":5126,"type":"VEC2"},{"bufferView":2,"byteOffset":0,"count":6,"componentType":5125,"type":"SCALAR"},{"bufferView":2,"byteOffset":24,"count":6,"componentType":5125,"type":"SCALAR"},{"bufferView":2,"byteOffset":48,"count":12,"componentType":5125,"type":"SCALAR"},{"bufferView":3,"byteOffset":0,"count":4,"componentType":5126,"type":"VEC3","min":[0.019050000235438347,0,0],"max":[0.019050000235438347,0.00634999992325902,0.00634999992325902]},{"bufferView":3,"byteOffset":48,"count":4,"componentType":5126,"type":"VEC3","min":[0.01269999984651804,0,0],"max":[0.019050000235438347,0,0.00634999992325902]},{"bufferView":3,"byteOffset":96,"count":8,"componentType":5126,"type":"VEC3","min":[0.01269999984651804,0,0],"max":[0.019050000235438347,0.00634999992325902,0.00634999992325902]},{"bufferView":4,"byteOffset":0,"count":4,"componentType":5126,"type":"VEC2"},{"bufferView":4,"byteOffset":32,"count":4,"componentType":5126,"type":"VEC2"},{"bufferView":4,"byteOffset":64,"count":8,"componentType":5126,"type":"VEC2"},{"bufferView":5,"byteOffset":0,"count":6,"componentType":5125,"type":"SCALAR"},{"bufferView":5,"byteOffset":24,"count":6,"componentType":5125,"type":"SCALAR"},{"bufferView":5,"byteOffset":48,"count":12,"componentType":5125,"type":"SCALAR"},{"bufferView":6,"byteOffset":0,"count":4,"componentType":5126,"type":"VEC3","min":[0.00634999992325902,0.00634999992325902,0],"max":[0.00634999992325902,0.01269999984651804,0.00634999992325902]},{"bufferView":6,"byteOffset":48,"count":8,"componentType":5126,"type":"VEC3","min":[0.00634999992325902,0.00634999992325902,0],"max":[0.01269999984651804,0.01269999984651804,0.00634999992325902]},{"bufferView":7,"byteOffset":0,"count":4,"componentType":5126,"type":"VEC2"},{"bufferView":7,"byteOffset":32,"count":8,"componentType":5126,"type":"VEC2"},{"bufferView":8,"byteOffset":0,"count":6,"componentType":5125,"type":"SCALAR"},{"bufferView":8,"byteOffset":24,"count":12,"componentType":5125,"type":"SCALAR"},{"bufferView":9,"byteOffset":0,"count":4,"componentType":5126,"type":"VEC3","min":[0.019050000235438347,0.00634999992325902,0],"max":[0.019050000235438347,0.01269999984651804,0.00634999992325902]},{"bufferView":9,"byteOffset":48,"count":8,"componentType":5126,"type":"VEC3","min":[0.01269999984651804,0.00634999992325902,0],"max":[0.019050000235438347,0.01269999984651804,0.00634999992325902]},{"bufferView":10,"byteOffset":0,"count":4,"componentType":5126,"type":"VEC2"},{"bufferView":10,"byteOffset":32,"count":8,"componentType":5126,"type":"VEC2"},{"bufferView":11,"byteOffset":0,"count":6,"componentType":5125,"type":"SCALAR"},{"bufferView":11,"byteOffset":24,"count":12,"componentType":5125,"type":"SCALAR"},{"bufferView":12,"byteOffset":0,"count":4,"componentType":5126,"type":"VEC3","min":[0.00634999992325902,0.01269999984651804,0],"max":[0.00634999992325902,0.019050000235438347,0.00634999992325902]},{"bufferView":12,"byteOffset":48,"count":4,"componentType":5126,"type":"VEC3","min":[0.00634999992325902,0.019050000235438347,0],"max":[0.01269999984651804,0.019050000235438347,0.00634999992325902]},{"bufferView":12,"byteOffset":96,"count":8,"componentType":5126,"type":"VEC3","min":[0.00634999992325902,0.01269999984651804,0],"max":[0.01269999984651804,0.019050000235438347,0.00634999992325902]},{"bufferView":13,"byteOffset":0,"count":4,"componentType":5126,"type":"VEC2"},{"bufferView":13,"byteOffset":32,"count":4,"componentType":5126,"type":"VEC2"},{"bufferView":13,"byteOffset":64,"count":8,"componentType":5126,"type":"VEC2"},{"bufferView":14,"byteOffset":0,"count":6,"componentType":5125,"type":"SCALAR"},{"bufferView":14,"byteOffset":24,"count":6,"componentType":5125,"type":"SCALAR"},{"bufferView":14,"byteOffset":48,"count":12,"componentType":5125,"type":"SCALAR"},{"bufferView":15,"byteOffset":0,"count":4,"componentType":5126,"type":"VEC3","min":[0.019050000235438347,0.01269999984651804,0],"max":[0.019050000235438347,0.019050000235438347,0.00634999992325902]},{"bufferView":15,"byteOffset":48,"count":4,"componentType":5126,"type":"VEC3","min":[0.01269999984651804,0.019050000235438347,0],"max":[0.019050000235438347,0.019050000235438347,0.00634999992325902]},{"bufferView":15,"byteOffset":96,"count":8,"componentType":5126,"type":"VEC3","min":[0.01269999984651804,0.01269999984651804,0],"max":[0.019050000235438347,0.019050000235438347,0.00634999992325902]},{"bufferView":16,"byteOffset":0,"count":4,"componentType":5126,"type":"VEC2"},{"bufferView":16,"byteOffset":32,"count":4,"componentType":5126,"type":"VEC2"},{"bufferView":16,"byteOffset":64,"count":8,"componentType":5126,"type":"VEC2"},{"bufferView":17,"byteOffset":0,"count":6,"componentType":5125,"type":"SCALAR"},{"bufferView":17,"byteOffset":24,"count":6,"componentType":5125,"type":"SCALAR"},{"bufferView":17,"byteOffset":48,"count":12,"componentType":5125,"type":"SCALAR"},{"bufferView":18,"byteOffset":0,"count":20,"componentType":5126,"type":"VEC3","min":[0.0055562499910593033,0.0023812500294297934,0.0019843750633299351],"max":[0.00634999992325902,0.00396875012665987,0.0043656248599290848]},{"bufferView":19,"byteOffset":0,"count":20,"componentType":5126,"type":"VEC2"},{"bufferView":20,"byteOffset":0,"count":30,"componentType":5125,"type":"SCALAR"}],"bufferViews":[{"buffer":0,"byteOffset":0,"byteLength":192,"byteStride":12,"target":34962},{"buffer":0,"byteOffset":192,"byteLength":128,"byteStride":8,"target":34962},{"buffer":0,"byteOffset":320,"byteLength":96,"target":34963},{"buffer":0,"byteOffset":416,"byteLength":192,"byteStride":12,"target":34962},{"buffer":0,"byteOffset":608,"byteLength":128,"byteStride":8,"target":34962},{"buffer":0,"byteOffset":736,"byteLength":96,"target":34963},{"buffer":0,"byteOffset":832,"byteLength":144,"byteStride":12,"target":34962},{"buffer":0,"byteOffset":976,"byteLength":96,"byteStride":8,"target":34962},{"buffer":0,"byteOffset":1072,"byteLength":72,"target":34963},{"buffer":0,"byteOffset":1144,"byteLength":144,"byteStride":12,"target":34962},{"buffer":0,"byteOffset":1288,"byteLength":96,"byteStride":8,"target":34962},{"buffer":0,"byteOffset":1384,"byteLength":72,"target":34963},{"buffer":0,"byteOffset":1456,"byteLength":192,"byteStride":12,"target":34962},{"buffer":0,"byteOffset":1648,"byteLength":128,"byteStride":8,"target":34962},{"buffer":0,"byteOffset":1776,"byteLength":96,"target":34963},{"buffer":0,"byteOffset":1872,"byteLength":192,"byteStride":12,"target":34962},{"buffer":0,"byteOffset":2064,"byteLength":128,"byteStride":8,"target":34962},{"buffer":0,"byteOffset":2192,"byteLength":96,"target":34963},{"buffer":0,"byteOffset":2288,"byteLength":240,"byteStride":12,"target":34962},{"buffer":0,"byteOffset":2528,"byteLength":160,"byteStride":8,"target":34962},{"buffer":0,"byteOffset":2688,"byteLength":120,"target":34963}],"buffers":[{"byteLength":2808,"uri":"double_extender_5_b.bin"}]}