{
    "asset": {
        "generator": "3D Builder",
        "version": "2.0"
    },
    "scene": 0,
    "scenes": [
        {
            "nodes": [
                0
            ]
        }
    ],
    "nodes": [
        {
            "mesh": 0,
            "matrix": [
                1,
                0,
                0,
                0,
                0,
                -1.1920928955078125E-7,
                -0.99999988079071045,
                0,
                0,
                0.99999988079071045,
                -1.1920928955078125E-7,
                0,
                0,
                0.01269999798387289,
                -1.5139579589984464E-9,
                1
            ]
        }
    ],
    "meshes": [
        {
            "primitives": [
                {
                    "attributes": {
                        "POSITION": 0,
                        "TEXCOORD_0": 1
                    },
                    "mode": 4,
                    "indices": 2,
                    "material": 0
                }
            ]
        }
    ],
    "materials": [
        {
            "pbrMetallicRoughness": {
                "baseColorFactor": [
                    1,
                    1,
                    1,
                    1
                ],
                "metallicFactor": 0,
                "roughnessFactor": 1,
                "baseColorTexture": {
                    "index": 0,
                    "texCoord": 0
                }
            },
            "alphaMode": "OPAQUE"
        }
    ],
    "textures": [
        {
            "source": 0,
            "sampler": 0
        }
    ],
    "images": [
        {
            "uri": "../textures/texture.png"
        }
    ],
    "samplers": [
        {
            "magFilter": 9729,
            "wrapS": 10497,
            "wrapT": 10497
        }
    ],
    "accessors": [
        {
            "bufferView": 0,
            "byteOffset": 0,
            "count": 232,
            "componentType": 5126,
            "type": "VEC3",
            "min": [
                0.085725001990795135,
                3.0606999397277832,
                -0.01269999984651804
            ],
            "max": [
                0.16509999334812164,
                3.1622998714447021,
                0.01269999984651804
            ]
        },
        {
            "bufferView": 1,
            "byteOffset": 0,
            "count": 232,
            "componentType": 5126,
            "type": "VEC2"
        },
        {
            "bufferView": 2,
            "byteOffset": 0,
            "count": 384,
            "componentType": 5125,
            "type": "SCALAR"
        }
    ],
    "bufferViews": [
        {
            "buffer": 0,
            "byteOffset": 0,
            "byteLength": 2784,
            "byteStride": 12,
            "target": 34962
        },
        {
            "buffer": 0,
            "byteOffset": 2784,
            "byteLength": 1856,
            "byteStride": 8,
            "target": 34962
        },
        {
            "buffer": 0,
            "byteOffset": 4640,
            "byteLength": 1536,
            "target": 34963
        }
    ],
    "buffers": [
        {
            "byteLength": 6176,
            "uri": "double_extender_1.bin"
        }
    ]
}