{"asset":{"generator":"3D Builder","version":"2.0"},"scene":0,"scenes":[{"nodes":[0]}],"nodes":[{"children":[1,2,3,4,5,6,7,8,9,10,11]},{"mesh":0,"matrix":[1,0,0,0,0,-1.1920928955078125E-7,-0.99999988079071045,0,0,0.99999988079071045,-1.1920928955078125E-7,0,0,0,0,1]},{"mesh":1,"matrix":[1,0,0,0,0,-1.1920928955078125E-7,-0.99999988079071045,0,0,0.99999988079071045,-1.1920928955078125E-7,0,0,0,0,1]},{"mesh":2,"matrix":[1,0,0,0,0,-1.1920928955078125E-7,-0.99999988079071045,0,0,0.99999988079071045,-1.1920928955078125E-7,0,0,0,0,1]},{"mesh":3,"matrix":[1,0,0,0,0,-1.1920928955078125E-7,-0.99999988079071045,0,0,0.99999988079071045,-1.1920928955078125E-7,0,0,0,0,1]},{"mesh":4,"matrix":[1,0,0,0,0,-1.1920928955078125E-7,-0.99999988079071045,0,0,0.99999988079071045,-1.1920928955078125E-7,0,0,0,0,1]},{"mesh":5,"matrix":[1,0,0,0,0,-1.1920928955078125E-7,-0.99999988079071045,0,0,0.99999988079071045,-1.1920928955078125E-7,0,0,0,0,1]},{"mesh":6,"matrix":[1,0,0,0,0,-1.1920928955078125E-7,-0.99999988079071045,0,0,0.99999988079071045,-1.1920928955078125E-7,0,0,0,0,1]},{"mesh":7,"matrix":[1,0,0,0,0,-1.1920928955078125E-7,-0.99999988079071045,0,0,0.99999988079071045,-1.1920928955078125E-7,0,0,0,0,1]},{"mesh":8,"matrix":[1,0,0,0,0,-1.1920928955078125E-7,-0.99999988079071045,0,0,0.99999988079071045,-1.1920928955078125E-7,0,0,0,0,1]},{"mesh":9,"matrix":[1,0,0,0,0,-1.1920928955078125E-7,-0.99999988079071045,0,0,0.99999988079071045,-1.1920928955078125E-7,0,0,0,0,1]},{"mesh":10,"matrix":[1,0,0,0,0,-1.1920928955078125E-7,-0.99999988079071045,0,0,0.99999988079071045,-1.1920928955078125E-7,0,0,0,0,1]}],"meshes":[{"primitives":[{"attributes":{"POSITION":0,"TEXCOORD_0":1},"mode":4,"indices":2,"material":0}]},{"primitives":[{"attributes":{"POSITION":3,"TEXCOORD_0":4},"mode":4,"indices":5,"material":0}]},{"primitives":[{"attributes":{"POSITION":6,"TEXCOORD_0":7},"mode":4,"indices":8,"material":0}]},{"primitives":[{"attributes":{"POSITION":9,"TEXCOORD_0":10},"mode":4,"indices":11,"material":1}]},{"primitives":[{"attributes":{"POSITION":12,"TEXCOORD_0":13},"mode":4,"indices":14,"material":2}]},{"primitives":[{"attributes":{"POSITION":15,"TEXCOORD_0":18},"mode":4,"indices":21,"material":2},{"attributes":{"POSITION":16,"TEXCOORD_0":19},"mode":4,"indices":22,"material":3},{"attributes":{"POSITION":17,"TEXCOORD_0":20},"mode":4,"indices":23,"material":4}]},{"primitives":[{"attributes":{"POSITION":24,"TEXCOORD_0":26},"mode":4,"indices":28,"material":1},{"attributes":{"POSITION":25,"TEXCOORD_0":27},"mode":4,"indices":29,"material":5}]},{"primitives":[{"attributes":{"POSITION":30,"TEXCOORD_0":32},"mode":4,"indices":34,"material":6},{"attributes":{"POSITION":31,"TEXCOORD_0":33},"mode":4,"indices":35,"material":7}]},{"primitives":[{"attributes":{"POSITION":36,"TEXCOORD_0":37},"mode":4,"indices":38,"material":8}]},{"primitives":[{"attributes":{"POSITION":39,"TEXCOORD_0":40},"mode":4,"indices":41,"material":8}]},{"primitives":[{"attributes":{"POSITION":42,"TEXCOORD_0":43},"mode":4,"indices":44,"material":9}]}],"materials":[{"pbrMetallicRoughness":{"baseColorFactor":[1,1,1,1],"metallicFactor":0,"roughnessFactor":1,"baseColorTexture":{"index":0,"texCoord":0}},"alphaMode":"OPAQUE"},{"pbrMetallicRoughness":{"baseColorFactor":[1,1,1,1],"metallicFactor":0,"roughnessFactor":1,"baseColorTexture":{"index":1,"texCoord":0}},"alphaMode":"OPAQUE"},{"pbrMetallicRoughness":{"baseColorFactor":[1,1,1,1],"metallicFactor":0,"roughnessFactor":1,"baseColorTexture":{"index":2,"texCoord":0}},"alphaMode":"OPAQUE"},{"pbrMetallicRoughness":{"baseColorFactor":[1,1,1,1],"metallicFactor":0,"roughnessFactor":1,"baseColorTexture":{"index":3,"texCoord":0}},"alphaMode":"OPAQUE"},{"pbrMetallicRoughness":{"baseColorFactor":[1,1,1,1],"metallicFactor":0,"roughnessFactor":1,"baseColorTexture":{"index":4,"texCoord":0}},"alphaMode":"OPAQUE"},{"pbrMetallicRoughness":{"baseColorFactor":[1,1,1,1],"metallicFactor":0,"roughnessFactor":1,"baseColorTexture":{"index":5,"texCoord":0}},"alphaMode":"OPAQUE"},{"pbrMetallicRoughness":{"baseColorFactor":[1,1,1,1],"metallicFactor":0,"roughnessFactor":1,"baseColorTexture":{"index":6,"texCoord":0}},"alphaMode":"OPAQUE"},{"pbrMetallicRoughness":{"baseColorFactor":[1,1,1,1],"metallicFactor":0,"roughnessFactor":1,"baseColorTexture":{"index":7,"texCoord":0}},"alphaMode":"OPAQUE"},{"pbrMetallicRoughness":{"baseColorFactor":[1,1,1,1],"metallicFactor":0,"roughnessFactor":1,"baseColorTexture":{"index":8,"texCoord":0}},"alphaMode":"OPAQUE"},{"pbrMetallicRoughness":{"baseColorFactor":[1,1,1,1],"metallicFactor":0,"roughnessFactor":1,"baseColorTexture":{"index":9,"texCoord":0}},"alphaMode":"OPAQUE"}],"textures":[{"source":0,"sampler":0},{"source":1,"sampler":0},{"source":2,"sampler":0},{"source":3,"sampler":0},{"source":4,"sampler":0},{"source":5,"sampler":0},{"source":6,"sampler":0},{"source":7,"sampler":0},{"source":8,"sampler":0},{"source":9,"sampler":0}],"images":[{"uri":"../textures/iron_block.png"},{"uri":"../textures/piston_side.png"},{"uri":"../textures/observer_side.png"},{"uri":"../textures/observer_front.png"},{"uri":"../textures/observer_top.png"},{"uri":"../textures/piston_bottom.png"},{"uri":"../textures/stone_slab_top.png"},{"uri":"../textures/repeater.png"},{"uri":"../textures/redstone_torch_off.png"},{"uri":"../textures/stone.png"}],"samplers":[{"magFilter":9729,"wrapS":10497,"wrapT":10497}],"accessors":[{"bufferView":0,"byteOffset":0,"count":15,"componentType":5126,"type":"VEC3","min":[0,0,0],"max":[0.00634999992325902,0.00634999992325902,0.00634999992325902]},{"bufferView":1,"byteOffset":0,"count":15,"componentType":5126,"type":"VEC2"},{"bufferView":2,"byteOffset":0,"count":24,"componentType":5125,"type":"SCALAR"},{"bufferView":3,"byteOffset":0,"count":12,"componentType":5126,"type":"VEC3","min":[0.00634999992325902,0,0],"max":[0.01269999984651804,0.00634999992325902,0.00634999992325902]},{"bufferView":4,"byteOffset":0,"count":12,"componentType":5126,"type":"VEC2"},{"bufferView":5,"byteOffset":0,"count":18,"componentType":5125,"type":"SCALAR"},{"bufferView":6,"byteOffset":0,"count":15,"componentType":5126,"type":"VEC3","min":[0.01269999984651804,0,0],"max":[0.019050000235438347,0.00634999992325902,0.00634999992325902]},{"bufferView":7,"byteOffset":0,"count":15,"componentType":5126,"type":"VEC2"},{"bufferView":8,"byteOffset":0,"count":24,"componentType":5125,"type":"SCALAR"},{"bufferView":9,"byteOffset":0,"count":12,"componentType":5126,"type":"VEC3","min":[0,0.00634999992325902,0],"max":[0.00634999992325902,0.01269999984651804,0.00634999992325902]},{"bufferView":10,"byteOffset":0,"count":12,"componentType":5126,"type":"VEC2"},{"bufferView":11,"byteOffset":0,"count":18,"componentType":5125,"type":"SCALAR"},{"bufferView":12,"byteOffset":0,"count":8,"componentType":5126,"type":"VEC3","min":[0.00634999992325902,0.00634999992325902,0],"max":[0.01269999984651804,0.01269999984651804,0.00634999992325902]},{"bufferView":13,"byteOffset":0,"count":8,"componentType":5126,"type":"VEC2"},{"bufferView":14,"byteOffset":0,"count":12,"componentType":5125,"type":"SCALAR"},{"bufferView":15,"byteOffset":0,"count":4,"componentType":5126,"type":"VEC3","min":[0.019050000235438347,0.00634999992325902,0],"max":[0.019050000235438347,0.01269999984651804,0.00634999992325902]},{"bufferView":15,"byteOffset":48,"count":4,"componentType":5126,"type":"VEC3","min":[0.01269999984651804,0.01269999984651804,0],"max":[0.019050000235438347,0.01269999984651804,0.00634999992325902]},{"bufferView":15,"byteOffset":96,"count":8,"componentType":5126,"type":"VEC3","min":[0.01269999984651804,0.00634999992325902,0],"max":[0.019050000235438347,0.01269999984651804,0.00634999992325902]},{"bufferView":16,"byteOffset":0,"count":4,"componentType":5126,"type":"VEC2"},{"bufferView":16,"byteOffset":32,"count":4,"componentType":5126,"type":"VEC2"},{"bufferView":16,"byteOffset":64,"count":8,"componentType":5126,"type":"VEC2"},{"bufferView":17,"byteOffset":0,"count":6,"componentType":5125,"type":"SCALAR"},{"bufferView":17,"byteOffset":24,"count":6,"componentType":5125,"type":"SCALAR"},{"bufferView":17,"byteOffset":48,"count":12,"componentType":5125,"type":"SCALAR"},{"bufferView":18,"byteOffset":0,"count":16,"componentType":5126,"type":"VEC3","min":[0,0.01269999984651804,0],"max":[0.00634999992325902,0.019050000235438347,0.00634999992325902]},{"bufferView":18,"byteOffset":192,"count":4,"componentType":5126,"type":"VEC3","min":[0,0.019050000235438347,0],"max":[0.00634999992325902,0.019050000235438347,0.00634999992325902]},{"bufferView":19,"byteOffset":0,"count":16,"componentType":5126,"type":"VEC2"},{"bufferView":19,"byteOffset":128,"count":4,"componentType":5126,"type":"VEC2"},{"bufferView":20,"byteOffset":0,"count":24,"componentType":5125,"type":"SCALAR"},{"bufferView":20,"byteOffset":96,"count":6,"componentType":5125,"type":"SCALAR"},{"bufferView":21,"byteOffset":0,"count":12,"componentType":5126,"type":"VEC3","min":[0.00634999992325902,0.01269999984651804,0],"max":[0.01269999984651804,0.013493750244379044,0.00634999992325902]},{"bufferView":21,"byteOffset":144,"count":4,"componentType":5126,"type":"VEC3","min":[0.00634999992325902,0.013493750244379044,0],"max":[0.01269999984651804,0.013493750244379044,0.00634999992325902]},{"bufferView":22,"byteOffset":0,"count":12,"componentType":5126,"type":"VEC2"},{"bufferView":22,"byteOffset":96,"count":4,"componentType":5126,"type":"VEC2"},{"bufferView":23,"byteOffset":0,"count":18,"componentType":5125,"type":"SCALAR"},{"bufferView":23,"byteOffset":72,"count":6,"componentType":5125,"type":"SCALAR"},{"bufferView":24,"byteOffset":0,"count":22,"componentType":5126,"type":"VEC3","min":[0.00873124971985817,0.013493750244379044,0.0027781249955296516],"max":[0.0095250001177191734,0.015478124842047691,0.0035718749277293682]},{"bufferView":25,"byteOffset":0,"count":22,"componentType":5126,"type":"VEC2"},{"bufferView":26,"byteOffset":0,"count":36,"componentType":5125,"type":"SCALAR"},{"bufferView":27,"byteOffset":0,"count":22,"componentType":5126,"type":"VEC3","min":[0.0071437498554587364,0.013493750244379044,0.0027781249955296516],"max":[0.00793750025331974,0.015478124842047691,0.0035718749277293682]},{"bufferView":28,"byteOffset":0,"count":22,"componentType":5126,"type":"VEC2"},{"bufferView":29,"byteOffset":0,"count":36,"componentType":5125,"type":"SCALAR"},{"bufferView":30,"byteOffset":0,"count":20,"componentType":5126,"type":"VEC3","min":[0.014684374444186687,0.01269999984651804,0.0023812500294297934],"max":[0.0170656256377697,0.013493750244379044,0.00396875012665987]},{"bufferView":31,"byteOffset":0,"count":20,"componentType":5126,"type":"VEC2"},{"bufferView":32,"byteOffset":0,"count":30,"componentType":5125,"type":"SCALAR"}],"bufferViews":[{"buffer":0,"byteOffset":0,"byteLength":180,"byteStride":12,"target":34962},{"buffer":0,"byteOffset":180,"byteLength":120,"byteStride":8,"target":34962},{"buffer":0,"byteOffset":300,"byteLength":96,"target":34963},{"buffer":0,"byteOffset":396,"byteLength":144,"byteStride":12,"target":34962},{"buffer":0,"byteOffset":540,"byteLength":96,"byteStride":8,"target":34962},{"buffer":0,"byteOffset":636,"byteLength":72,"target":34963},{"buffer":0,"byteOffset":708,"byteLength":180,"byteStride":12,"target":34962},{"buffer":0,"byteOffset":888,"byteLength":120,"byteStride":8,"target":34962},{"buffer":0,"byteOffset":1008,"byteLength":96,"target":34963},{"buffer":0,"byteOffset":1104,"byteLength":144,"byteStride":12,"target":34962},{"buffer":0,"byteOffset":1248,"byteLength":96,"byteStride":8,"target":34962},{"buffer":0,"byteOffset":1344,"byteLength":72,"target":34963},{"buffer":0,"byteOffset":1416,"byteLength":96,"byteStride":12,"target":34962},{"buffer":0,"byteOffset":1512,"byteLength":64,"byteStride":8,"target":34962},{"buffer":0,"byteOffset":1576,"byteLength":48,"target":34963},{"buffer":0,"byteOffset":1624,"byteLength":192,"byteStride":12,"target":34962},{"buffer":0,"byteOffset":1816,"byteLength":128,"byteStride":8,"target":34962},{"buffer":0,"byteOffset":1944,"byteLength":96,"target":34963},{"buffer":0,"byteOffset":2040,"byteLength":240,"byteStride":12,"target":34962},{"buffer":0,"byteOffset":2280,"byteLength":160,"byteStride":8,"target":34962},{"buffer":0,"byteOffset":2440,"byteLength":120,"target":34963},{"buffer":0,"byteOffset":2560,"byteLength":192,"byteStride":12,"target":34962},{"buffer":0,"byteOffset":2752,"byteLength":128,"byteStride":8,"target":34962},{"buffer":0,"byteOffset":2880,"byteLength":96,"target":34963},{"buffer":0,"byteOffset":2976,"byteLength":264,"byteStride":12,"target":34962},{"buffer":0,"byteOffset":3240,"byteLength":176,"byteStride":8,"target":34962},{"buffer":0,"byteOffset":3416,"byteLength":144,"target":34963},{"buffer":0,"byteOffset":3560,"byteLength":264,"byteStride":12,"target":34962},{"buffer":0,"byteOffset":3824,"byteLength":176,"byteStride":8,"target":34962},{"buffer":0,"byteOffset":4000,"byteLength":144,"target":34963},{"buffer":0,"byteOffset":4144,"byteLength":240,"byteStride":12,"target":34962},{"buffer":0,"byteOffset":4384,"byteLength":160,"byteStride":8,"target":34962},{"buffer":0,"byteOffset":4544,"byteLength":120,"target":34963}],"buffers":[{"byteLength":4664,"uri":"double_extender_3.bin"}]}