{"asset":{"generator":"3D Builder","version":"2.0"},"scene":0,"scenes":[{"nodes":[0]}],"nodes":[{"children":[1,2,3,4,5,6,7,8,9,10,11,12,13,14,15,16,17]},{"mesh":0,"matrix":[1,0,0,0,0,-1.1920928955078125E-7,-0.99999988079071045,0,0,0.99999988079071045,-1.1920928955078125E-7,0,0,0.01269999798387289,-1.5139579589984464E-9,1]},{"mesh":1,"matrix":[1,0,0,0,0,-1.1920928955078125E-7,-0.99999988079071045,0,0,0.99999988079071045,-1.1920928955078125E-7,0,0,0.01269999798387289,-1.5139579589984464E-9,1]},{"mesh":2,"matrix":[1,0,0,0,0,-1.1920928955078125E-7,-0.99999988079071045,0,0,0.99999988079071045,-1.1920928955078125E-7,0,0,0.01269999798387289,-1.5139579589984464E-9,1]},{"mesh":3,"matrix":[1,0,0,0,0,-1.1920928955078125E-7,-0.99999988079071045,0,0,0.99999988079071045,-1.1920928955078125E-7,0,0,0.01269999798387289,-1.5139579589984464E-9,1]},{"mesh":4,"matrix":[1,0,0,0,0,-1.1920928955078125E-7,-0.99999988079071045,0,0,0.99999988079071045,-1.1920928955078125E-7,0,0,0.01269999798387289,-1.5139579589984464E-9,1]},{"mesh":5,"matrix":[1,0,0,0,0,-1.1920928955078125E-7,-0.99999988079071045,0,0,0.99999988079071045,-1.1920928955078125E-7,0,0,0.01269999798387289,-1.5139579589984464E-9,1]},{"mesh":6,"matrix":[1,0,0,0,0,-1.1920928955078125E-7,-0.99999988079071045,0,0,0.99999988079071045,-1.1920928955078125E-7,0,0,0.01269999798387289,-1.5139579589984464E-9,1]},{"mesh":7,"matrix":[1,0,0,0,0,-1.1920928955078125E-7,-0.99999988079071045,0,0,0.99999988079071045,-1.1920928955078125E-7,0,0,0.01269999798387289,-1.5139579589984464E-9,1]},{"mesh":8,"matrix":[1,0,0,0,0,-1.1920928955078125E-7,-0.99999988079071045,0,0,0.99999988079071045,-1.1920928955078125E-7,0,0,0.01269999798387289,-1.5139579589984464E-9,1]},{"mesh":9,"matrix":[1,0,0,0,0,-1.1920928955078125E-7,-0.99999988079071045,0,0,0.99999988079071045,-1.1920928955078125E-7,0,0,0.01269999798387289,-1.5139579589984464E-9,1]},{"mesh":10,"matrix":[1,0,0,0,0,-1.1920928955078125E-7,-0.99999988079071045,0,0,0.99999988079071045,-1.1920928955078125E-7,0,0,0.01269999798387289,-1.5139579589984464E-9,1]},{"mesh":11,"matrix":[1,0,0,0,0,-1.1920928955078125E-7,-0.99999988079071045,0,0,0.99999988079071045,-1.1920928955078125E-7,0,0,0.01269999798387289,-1.5139579589984464E-9,1]},{"mesh":12,"matrix":[1,0,0,0,0,-1.1920928955078125E-7,-0.99999988079071045,0,0,0.99999988079071045,-1.1920928955078125E-7,0,0,0.01269999798387289,-1.5139579589984464E-9,1]},{"mesh":13,"matrix":[1,0,0,0,0,-1.1920928955078125E-7,-0.99999988079071045,0,0,0.99999988079071045,-1.1920928955078125E-7,0,0,0.01269999798387289,-1.5139579589984464E-9,1]},{"mesh":14,"matrix":[1,0,0,0,0,-1.1920928955078125E-7,-0.99999988079071045,0,0,0.99999988079071045,-1.1920928955078125E-7,0,0,0.01269999798387289,-1.5139579589984464E-9,1]},{"mesh":15,"matrix":[1,0,0,0,0,-1.1920928955078125E-7,-0.99999988079071045,0,0,0.99999988079071045,-1.1920928955078125E-7,0,0,0.01269999798387289,-1.5139579589984464E-9,1]},{"mesh":16,"matrix":[1,0,0,0,0,-1.1920928955078125E-7,-0.99999988079071045,0,0,0.99999988079071045,-1.1920928955078125E-7,0,0,0.01269999798387289,-1.5139579589984464E-9,1]}],"meshes":[{"primitives":[{"attributes":{"POSITION":0,"TEXCOORD_0":1},"mode":4,"indices":2,"material":0}]},{"primitives":[{"attributes":{"POSITION":3,"TEXCOORD_0":4},"mode":4,"indices":5,"material":0}]},{"primitives":[{"attributes":{"POSITION":6,"TEXCOORD_0":7},"mode":4,"indices":8,"material":1}]},{"primitives":[{"attributes":{"POSITION":9,"TEXCOORD_0":10},"mode":4,"indices":11,"material":1}]},{"primitives":[{"attributes":{"POSITION":12,"TEXCOORD_0":13},"mode":4,"indices":14,"material":0}]},{"primitives":[{"attributes":{"POSITION":15,"TEXCOORD_0":19},"mode":4,"indices":23,"material":2},{"attributes":{"POSITION":16,"TEXCOORD_0":20},"mode":4,"indices":24,"material":3},{"attributes":{"POSITION":17,"TEXCOORD_0":21},"mode":4,"indices":25,"material":4},{"attributes":{"POSITION":18,"TEXCOORD_0":22},"mode":4,"indices":26,"material":5}]},{"primitives":[{"attributes":{"POSITION":27,"TEXCOORD_0":28},"mode":4,"indices":29,"material":0}]},{"primitives":[{"attributes":{"POSITION":30,"TEXCOORD_0":31},"mode":4,"indices":32,"material":6}]},{"primitives":[{"attributes":{"POSITION":33,"TEXCOORD_0":34},"mode":4,"indices":35,"material":6}]},{"primitives":[{"attributes":{"POSITION":36,"TEXCOORD_0":38},"mode":4,"indices":40,"material":7},{"attributes":{"POSITION":37,"TEXCOORD_0":39},"mode":4,"indices":41,"material":8}]},{"primitives":[{"attributes":{"POSITION":42,"TEXCOORD_0":43},"mode":4,"indices":44,"material":9}]},{"primitives":[{"attributes":{"POSITION":45,"TEXCOORD_0":46},"mode":4,"indices":47,"material":6}]},{"primitives":[{"attributes":{"POSITION":48,"TEXCOORD_0":49},"mode":4,"indices":50,"material":10}]},{"primitives":[{"attributes":{"POSITION":51,"TEXCOORD_0":52},"mode":4,"indices":53,"material":0}]},{"primitives":[{"attributes":{"POSITION":54,"TEXCOORD_0":55},"mode":4,"indices":56,"material":6}]},{"primitives":[{"attributes":{"POSITION":57,"TEXCOORD_0":58},"mode":4,"indices":59,"material":6}]},{"primitives":[{"attributes":{"POSITION":60,"TEXCOORD_0":61},"mode":4,"indices":62,"material":6}]}],"materials":[{"pbrMetallicRoughness":{"baseColorFactor":[1,1,1,1],"metallicFactor":0,"roughnessFactor":1,"baseColorTexture":{"index":0,"texCoord":0}},"alphaMode":"OPAQUE"},{"pbrMetallicRoughness":{"baseColorFactor":[1,1,1,1],"metallicFactor":0,"roughnessFactor":1,"baseColorTexture":{"index":1,"texCoord":0}},"alphaMode":"OPAQUE"},{"pbrMetallicRoughness":{"baseColorFactor":[1,1,1,1],"metallicFactor":0,"roughnessFactor":1,"baseColorTexture":{"index":2,"texCoord":0}},"alphaMode":"OPAQUE"},{"pbrMetallicRoughness":{"baseColorFactor":[1,1,1,1],"metallicFactor":0,"roughnessFactor":1,"baseColorTexture":{"index":3,"texCoord":0}},"alphaMode":"OPAQUE"},{"pbrMetallicRoughness":{"baseColorFactor":[1,1,1,1],"metallicFactor":0,"roughnessFactor":1,"baseColorTexture":{"index":4,"texCoord":0}},"alphaMode":"OPAQUE"},{"pbrMetallicRoughness":{"baseColorFactor":[1,1,1,1],"metallicFactor":0,"roughnessFactor":1,"baseColorTexture":{"index":5,"texCoord":0}},"alphaMode":"OPAQUE"},{"pbrMetallicRoughness":{"baseColorFactor":[1,1,1,1],"metallicFactor":0,"roughnessFactor":1,"baseColorTexture":{"index":6,"texCoord":0}},"alphaMode":"OPAQUE"},{"pbrMetallicRoughness":{"baseColorFactor":[1,1,1,1],"metallicFactor":0,"roughnessFactor":1,"baseColorTexture":{"index":7,"texCoord":0}},"alphaMode":"OPAQUE"},{"pbrMetallicRoughness":{"baseColorFactor":[1,1,1,1],"metallicFactor":0,"roughnessFactor":1,"baseColorTexture":{"index":8,"texCoord":0}},"alphaMode":"OPAQUE"},{"pbrMetallicRoughness":{"baseColorFactor":[1,1,1,1],"metallicFactor":0,"roughnessFactor":1,"baseColorTexture":{"index":9,"texCoord":0}},"alphaMode":"OPAQUE"},{"pbrMetallicRoughness":{"baseColorFactor":[1,1,1,1],"metallicFactor":0,"roughnessFactor":1,"baseColorTexture":{"index":10,"texCoord":0}},"alphaMode":"OPAQUE"}],"textures":[{"source":0,"sampler":0},{"source":1,"sampler":0},{"source":2,"sampler":0},{"source":3,"sampler":0},{"source":4,"sampler":0},{"source":5,"sampler":0},{"source":6,"sampler":0},{"source":7,"sampler":0},{"source":8,"sampler":0},{"source":9,"sampler":0},{"source":10,"sampler":0}],"images":[{"uri":"../textures/iron_block.png"},{"uri":"../textures/piston_side.png"},{"uri":"../textures/observer_side.png"},{"uri":"../textures/observer_back.png"},{"uri":"../textures/observer_front.png"},{"uri":"../textures/observer_top.png"},{"uri":"../textures/redstone_dust_line_off.png"},{"uri":"../textures/stone_slab_top.png"},{"uri":"../textures/repeater.png"},{"uri":"../textures/redstone_torch_off.png"},{"uri":"../textures/stone.png"}],"samplers":[{"magFilter":9729,"wrapS":10497,"wrapT":10497}],"accessors":[{"bufferView":0,"byteOffset":0,"count":15,"componentType":5126,"type":"VEC3","min":[-0.01269999984651804,-0.01269999984651804,-0.01269999984651804],"max":[-0.00634999992325902,-0.00634999992325902,-0.00634999992325902]},{"bufferView":1,"byteOffset":0,"count":15,"componentType":5126,"type":"VEC2"},{"bufferView":2,"byteOffset":0,"count":24,"componentType":5125,"type":"SCALAR"},{"bufferView":3,"byteOffset":0,"count":18,"componentType":5126,"type":"VEC3","min":[0,-0.01269999984651804,-0.01269999984651804],"max":[0.00634999992325902,-0.00634999992325902,-0.00634999992325902]},{"bufferView":4,"byteOffset":0,"count":18,"componentType":5126,"type":"VEC2"},{"bufferView":5,"byteOffset":0,"count":30,"componentType":5125,"type":"SCALAR"},{"bufferView":6,"byteOffset":0,"count":16,"componentType":5126,"type":"VEC3","min":[-0.01269999984651804,-0.00634999992325902,-0.01269999984651804],"max":[-0.00634999992325902,0,-0.00634999992325902]},{"bufferView":7,"byteOffset":0,"count":16,"componentType":5126,"type":"VEC2"},{"bufferView":8,"byteOffset":0,"count":24,"componentType":5125,"type":"SCALAR"},{"bufferView":9,"byteOffset":0,"count":12,"componentType":5126,"type":"VEC3","min":[-0.01269999984651804,0,-0.01269999984651804],"max":[-0.00634999992325902,0.00634999992325902,-0.00634999992325902]},{"bufferView":10,"byteOffset":0,"count":12,"componentType":5126,"type":"VEC2"},{"bufferView":11,"byteOffset":0,"count":18,"componentType":5125,"type":"SCALAR"},{"bufferView":12,"byteOffset":0,"count":12,"componentType":5126,"type":"VEC3","min":[-0.00634999992325902,0,-0.01269999984651804],"max":[0,0.00634999992325902,-0.00634999992325902]},{"bufferView":13,"byteOffset":0,"count":12,"componentType":5126,"type":"VEC2"},{"bufferView":14,"byteOffset":0,"count":18,"componentType":5125,"type":"SCALAR"},{"bufferView":15,"byteOffset":0,"count":4,"componentType":5126,"type":"VEC3","min":[0.00634999992325902,0,-0.01269999984651804],"max":[0.00634999992325902,0.00634999992325902,-0.00634999992325902]},{"bufferView":15,"byteOffset":48,"count":4,"componentType":5126,"type":"VEC3","min":[0,0.00634999992325902,-0.01269999984651804],"max":[0.00634999992325902,0.00634999992325902,-0.00634999992325902]},{"bufferView":15,"byteOffset":96,"count":4,"componentType":5126,"type":"VEC3","min":[0,0,-0.01269999984651804],"max":[0.00634999992325902,0,-0.00634999992325902]},{"bufferView":15,"byteOffset":144,"count":8,"componentType":5126,"type":"VEC3","min":[0,0,-0.01269999984651804],"max":[0.00634999992325902,0.00634999992325902,-0.00634999992325902]},{"bufferView":16,"byteOffset":0,"count":4,"componentType":5126,"type":"VEC2"},{"bufferView":16,"byteOffset":32,"count":4,"componentType":5126,"type":"VEC2"},{"bufferView":16,"byteOffset":64,"count":4,"componentType":5126,"type":"VEC2"},{"bufferView":16,"byteOffset":96,"count":8,"componentType":5126,"type":"VEC2"},{"bufferView":17,"byteOffset":0,"count":6,"componentType":5125,"type":"SCALAR"},{"bufferView":17,"byteOffset":24,"count":6,"componentType":5125,"type":"SCALAR"},{"bufferView":17,"byteOffset":48,"count":6,"componentType":5125,"type":"SCALAR"},{"bufferView":17,"byteOffset":72,"count":12,"componentType":5125,"type":"SCALAR"},{"bufferView":18,"byteOffset":0,"count":18,"componentType":5126,"type":"VEC3","min":[-0.01269999984651804,0.00634999992325902,-0.01269999984651804],"max":[-0.00634999992325902,0.01269999984651804,-0.00634999992325902]},{"bufferView":19,"byteOffset":0,"count":18,"componentType":5126,"type":"VEC2"},{"bufferView":20,"byteOffset":0,"count":30,"componentType":5125,"type":"SCALAR"},{"bufferView":21,"byteOffset":0,"count":4,"componentType":5126,"type":"VEC3","min":[0.00317499996162951,-0.0062491935677826405,-0.01269999984651804],"max":[0.00634999992325902,-0.0062491935677826405,-0.00634999992325902]},{"bufferView":22,"byteOffset":0,"count":4,"componentType":5126,"type":"VEC2"},{"bufferView":23,"byteOffset":0,"count":6,"componentType":5125,"type":"SCALAR"},{"bufferView":24,"byteOffset":0,"count":4,"componentType":5126,"type":"VEC3","min":[0,-0.0062491935677826405,-0.01269999984651804],"max":[0.00317499996162951,-0.0062491935677826405,-0.00634999992325902]},{"bufferView":25,"byteOffset":0,"count":4,"componentType":5126,"type":"VEC2"},{"bufferView":26,"byteOffset":0,"count":6,"componentType":5125,"type":"SCALAR"},{"bufferView":27,"byteOffset":0,"count":12,"componentType":5126,"type":"VEC3","min":[-0.00634999992325902,0.00634999992325902,-0.01269999984651804],"max":[0,0.0071437498554587364,-0.00634999992325902]},{"bufferView":27,"byteOffset":144,"count":4,"componentType":5126,"type":"VEC3","min":[-0.00634999992325902,0.0071437498554587364,-0.01269999984651804],"max":[0,0.0071437498554587364,-0.00634999992325902]},{"bufferView":28,"byteOffset":0,"count":12,"componentType":5126,"type":"VEC2"},{"bufferView":28,"byteOffset":96,"count":4,"componentType":5126,"type":"VEC2"},{"bufferView":29,"byteOffset":0,"count":18,"componentType":5125,"type":"SCALAR"},{"bufferView":29,"byteOffset":72,"count":6,"componentType":5125,"type":"SCALAR"},{"bufferView":30,"byteOffset":0,"count":22,"componentType":5126,"type":"VEC3","min":[-0.00396875012665987,0.0071437498554587364,-0.0099218748509883881],"max":[-0.00317499996162951,0.0091281244531273842,-0.0091281244531273842]},{"bufferView":31,"byteOffset":0,"count":22,"componentType":5126,"type":"VEC2"},{"bufferView":32,"byteOffset":0,"count":36,"componentType":5125,"type":"SCALAR"},{"bufferView":33,"byteOffset":0,"count":4,"componentType":5126,"type":"VEC3","min":[0.00317499996162951,0.0064508062787353992,-0.01269999984651804],"max":[0.00634999992325902,0.0064508062787353992,-0.00634999992325902]},{"bufferView":34,"byteOffset":0,"count":4,"componentType":5126,"type":"VEC2"},{"bufferView":35,"byteOffset":0,"count":6,"componentType":5125,"type":"SCALAR"},{"bufferView":36,"byteOffset":0,"count":20,"componentType":5126,"type":"VEC3","min":[0.0019843750633299351,-0.010318749584257603,-0.00634999992325902],"max":[0.0043656248599290848,-0.00873124971985817,-0.0055562499910593033]},{"bufferView":37,"byteOffset":0,"count":20,"componentType":5126,"type":"VEC2"},{"bufferView":38,"byteOffset":0,"count":30,"componentType":5125,"type":"SCALAR"},{"bufferView":39,"byteOffset":0,"count":16,"componentType":5126,"type":"VEC3","min":[-0.00634999992325902,-0.01269999984651804,-0.01269999984651804],"max":[0,-0.00634999992325902,-0.00634999992325902]},{"bufferView":40,"byteOffset":0,"count":16,"componentType":5126,"type":"VEC2"},{"bufferView":41,"byteOffset":0,"count":24,"componentType":5125,"type":"SCALAR"},{"bufferView":42,"byteOffset":0,"count":4,"componentType":5126,"type":"VEC3","min":[0,0.0064508062787353992,-0.01269999984651804],"max":[0.00317499996162951,0.0064508062787353992,-0.00634999992325902]},{"bufferView":43,"byteOffset":0,"count":4,"componentType":5126,"type":"VEC2"},{"bufferView":44,"byteOffset":0,"count":6,"componentType":5125,"type":"SCALAR"},{"bufferView":45,"byteOffset":0,"count":4,"componentType":5126,"type":"VEC3","min":[-0.00317499996162951,-0.0062491935677826405,-0.01269999984651804],"max":[0,-0.0062491935677826405,-0.00634999992325902]},{"bufferView":46,"byteOffset":0,"count":4,"componentType":5126,"type":"VEC2"},{"bufferView":47,"byteOffset":0,"count":6,"componentType":5125,"type":"SCALAR"},{"bufferView":48,"byteOffset":0,"count":4,"componentType":5126,"type":"VEC3","min":[-0.00634999992325902,-0.0062491935677826405,-0.01269999984651804],"max":[-0.00317499996162951,-0.0062491935677826405,-0.00634999992325902]},{"bufferView":49,"byteOffset":0,"count":4,"componentType":5126,"type":"VEC2"},{"bufferView":50,"byteOffset":0,"count":6,"componentType":5125,"type":"SCALAR"}],"bufferViews":[{"buffer":0,"byteOffset":0,"byteLength":180,"byteStride":12,"target":34962},{"buffer":0,"byteOffset":180,"byteLength":120,"byteStride":8,"target":34962},{"buffer":0,"byteOffset":300,"byteLength":96,"target":34963},{"buffer":0,"byteOffset":396,"byteLength":216,"byteStride":12,"target":34962},{"buffer":0,"byteOffset":612,"byteLength":144,"byteStride":8,"target":34962},{"buffer":0,"byteOffset":756,"byteLength":120,"target":34963},{"buffer":0,"byteOffset":876,"byteLength":192,"byteStride":12,"target":34962},{"buffer":0,"byteOffset":1068,"byteLength":128,"byteStride":8,"target":34962},{"buffer":0,"byteOffset":1196,"byteLength":96,"target":34963},{"buffer":0,"byteOffset":1292,"byteLength":144,"byteStride":12,"target":34962},{"buffer":0,"byteOffset":1436,"byteLength":96,"byteStride":8,"target":34962},{"buffer":0,"byteOffset":1532,"byteLength":72,"target":34963},{"buffer":0,"byteOffset":1604,"byteLength":144,"byteStride":12,"target":34962},{"buffer":0,"byteOffset":1748,"byteLength":96,"byteStride":8,"target":34962},{"buffer":0,"byteOffset":1844,"byteLength":72,"target":34963},{"buffer":0,"byteOffset":1916,"byteLength":240,"byteStride":12,"target":34962},{"buffer":0,"byteOffset":2156,"byteLength":160,"byteStride":8,"target":34962},{"buffer":0,"byteOffset":2316,"byteLength":120,"target":34963},{"buffer":0,"byteOffset":2436,"byteLength":216,"byteStride":12,"target":34962},{"buffer":0,"byteOffset":2652,"byteLength":144,"byteStride":8,"target":34962},{"buffer":0,"byteOffset":2796,"byteLength":120,"target":34963},{"buffer":0,"byteOffset":2916,"byteLength":48,"byteStride":12,"target":34962},{"buffer":0,"byteOffset":2964,"byteLength":32,"byteStride":8,"target":34962},{"buffer":0,"byteOffset":2996,"byteLength":24,"target":34963},{"buffer":0,"byteOffset":3020,"byteLength":48,"byteStride":12,"target":34962},{"buffer":0,"byteOffset":3068,"byteLength":32,"byteStride":8,"target":34962},{"buffer":0,"byteOffset":3100,"byteLength":24,"target":34963},{"buffer":0,"byteOffset":3124,"byteLength":192,"byteStride":12,"target":34962},{"buffer":0,"byteOffset":3316,"byteLength":128,"byteStride":8,"target":34962},{"buffer":0,"byteOffset":3444,"byteLength":96,"target":34963},{"buffer":0,"byteOffset":3540,"byteLength":264,"byteStride":12,"target":34962},{"buffer":0,"byteOffset":3804,"byteLength":176,"byteStride":8,"target":34962},{"buffer":0,"byteOffset":3980,"byteLength":144,"target":34963},{"buffer":0,"byteOffset":4124,"byteLength":48,"byteStride":12,"target":34962},{"buffer":0,"byteOffset":4172,"byteLength":32,"byteStride":8,"target":34962},{"buffer":0,"byteOffset":4204,"byteLength":24,"target":34963},{"buffer":0,"byteOffset":4228,"byteLength":240,"byteStride":12,"target":34962},{"buffer":0,"byteOffset":4468,"byteLength":160,"byteStride":8,"target":34962},{"buffer":0,"byteOffset":4628,"byteLength":120,"target":34963},{"buffer":0,"byteOffset":4748,"byteLength":192,"byteStride":12,"target":34962},{"buffer":0,"byteOffset":4940,"byteLength":128,"byteStride":8,"target":34962},{"buffer":0,"byteOffset":5068,"byteLength":96,"target":34963},{"buffer":0,"byteOffset":5164,"byteLength":48,"byteStride":12,"target":34962},{"buffer":0,"byteOffset":5212,"byteLength":32,"byteStride":8,"target":34962},{"buffer":0,"byteOffset":5244,"byteLength":24,"target":34963},{"buffer":0,"byteOffset":5268,"byteLength":48,"byteStride":12,"target":34962},{"buffer":0,"byteOffset":5316,"byteLength":32,"byteStride":8,"target":34962},{"buffer":0,"byteOffset":5348,"byteLength":24,"target":34963},{"buffer":0,"byteOffset":5372,"byteLength":48,"byteStride":12,"target":34962},{"buffer":0,"byteOffset":5420,"byteLength":32,"byteStride":8,"target":34962},{"buffer":0,"byteOffset":5452,"byteLength":24,"target":34963}],"buffers":[{"byteLength":5476,"uri":"double_extender_4.bin"}]}