{"asset":{"generator":"3D Builder","version":"2.0"},"scene":0,"scenes":[{"nodes":[0]}],"nodes":[{"children":[1,2,3,4,5,6,7,8,9,10,11,12,13,14,15]},{"mesh":0,"matrix":[1,0,0,0,0,-1.1920928955078125E-7,-0.99999988079071045,0,0,0.99999988079071045,-1.1920928955078125E-7,0,0,0.01269999798387289,-1.5139579589984464E-9,1]},{"mesh":1,"matrix":[1,0,0,0,0,-1.1920928955078125E-7,-0.99999988079071045,0,0,0.99999988079071045,-1.1920928955078125E-7,0,0,0.01269999798387289,-1.5139579589984464E-9,1]},{"mesh":2,"matrix":[1,0,0,0,0,-1.1920928955078125E-7,-0.99999988079071045,0,0,0.99999988079071045,-1.1920928955078125E-7,0,0,0.01269999798387289,-1.5139579589984464E-9,1]},{"mesh":3,"matrix":[1,0,0,0,0,-1.1920928955078125E-7,-0.99999988079071045,0,0,0.99999988079071045,-1.1920928955078125E-7,0,0,0.01269999798387289,-1.5139579589984464E-9,1]},{"mesh":4,"matrix":[1,0,0,0,0,-1.1920928955078125E-7,-0.99999988079071045,0,0,0.99999988079071045,-1.1920928955078125E-7,0,0,0.01269999798387289,-1.5139579589984464E-9,1]},{"mesh":5,"matrix":[1,0,0,0,0,-1.1920928955078125E-7,-0.99999988079071045,0,0,0.99999988079071045,-1.1920928955078125E-7,0,0,0.01269999798387289,-1.5139579589984464E-9,1]},{"mesh":6,"matrix":[1,0,0,0,0,-1.1920928955078125E-7,-0.99999988079071045,0,0,0.99999988079071045,-1.1920928955078125E-7,0,0,0.01269999798387289,-1.5139579589984464E-9,1]},{"mesh":7,"matrix":[1,0,0,0,0,-1.1920928955078125E-7,-0.99999988079071045,0,0,0.99999988079071045,-1.1920928955078125E-7,0,0,0.01269999798387289,-1.5139579589984464E-9,1]},{"mesh":8,"matrix":[1,0,0,0,0,-1.1920928955078125E-7,-0.99999988079071045,0,0,0.99999988079071045,-1.1920928955078125E-7,0,0,0.01269999798387289,-1.5139579589984464E-9,1]},{"mesh":9,"matrix":[1,0,0,0,0,-1.1920928955078125E-7,-0.99999988079071045,0,0,0.99999988079071045,-1.1920928955078125E-7,0,0,0.01269999798387289,-1.5139579589984464E-9,1]},{"mesh":10,"matrix":[1,0,0,0,0,-1.1920928955078125E-7,-0.99999988079071045,0,0,0.99999988079071045,-1.1920928955078125E-7,0,0,0.01269999798387289,-1.5139579589984464E-9,1]},{"mesh":11,"matrix":[1,0,0,0,0,-1.1920928955078125E-7,-0.99999988079071045,0,0,0.99999988079071045,-1.1920928955078125E-7,0,0,0.01269999798387289,-1.5139579589984464E-9,1]},{"mesh":12,"matrix":[1,0,0,0,0,-1.1920928955078125E-7,-0.99999988079071045,0,0,0.99999988079071045,-1.1920928955078125E-7,0,0,0.01269999798387289,-1.5139579589984464E-9,1]},{"mesh":13,"matrix":[1,0,0,0,0,-1.1920928955078125E-7,-0.99999988079071045,0,0,0.99999988079071045,-1.1920928955078125E-7,0,0,0.01269999798387289,-1.5139579589984464E-9,1]},{"mesh":14,"matrix":[1,0,0,0,0,-1.1920928955078125E-7,-0.99999988079071045,0,0,0.99999988079071045,-1.1920928955078125E-7,0,0,0.01269999798387289,-1.5139579589984464E-9,1]}],"meshes":[{"primitives":[{"attributes":{"POSITION":0,"TEXCOORD_0":2},"mode":4,"indices":4,"material":0},{"attributes":{"POSITION":1,"TEXCOORD_0":3},"mode":4,"indices":5,"material":1}]},{"primitives":[{"attributes":{"POSITION":6,"TEXCOORD_0":7},"mode":4,"indices":8,"material":1}]},{"primitives":[{"attributes":{"POSITION":9,"TEXCOORD_0":10},"mode":4,"indices":11,"material":2}]},{"primitives":[{"attributes":{"POSITION":12,"TEXCOORD_0":13},"mode":4,"indices":14,"material":3}]},{"primitives":[{"attributes":{"POSITION":15,"TEXCOORD_0":16},"mode":4,"indices":17,"material":2}]},{"primitives":[{"attributes":{"POSITION":18,"TEXCOORD_0":19},"mode":4,"indices":20,"material":4}]},{"primitives":[{"attributes":{"POSITION":21,"TEXCOORD_0":22},"mode":4,"indices":23,"material":4}]},{"primitives":[{"attributes":{"POSITION":24,"TEXCOORD_0":26},"mode":4,"indices":28,"material":5},{"attributes":{"POSITION":25,"TEXCOORD_0":27},"mode":4,"indices":29,"material":6}]},{"primitives":[{"attributes":{"POSITION":30,"TEXCOORD_0":31},"mode":4,"indices":32,"material":7}]},{"primitives":[{"attributes":{"POSITION":33,"TEXCOORD_0":34},"mode":4,"indices":35,"material":7}]},{"primitives":[{"attributes":{"POSITION":36,"TEXCOORD_0":37},"mode":4,"indices":38,"material":4}]},{"primitives":[{"attributes":{"POSITION":39,"TEXCOORD_0":40},"mode":4,"indices":41,"material":4}]},{"primitives":[{"attributes":{"POSITION":42,"TEXCOORD_0":43},"mode":4,"indices":44,"material":8}]},{"primitives":[{"attributes":{"POSITION":45,"TEXCOORD_0":46},"mode":4,"indices":47,"material":9}]},{"primitives":[{"attributes":{"POSITION":48,"TEXCOORD_0":49},"mode":4,"indices":50,"material":2}]}],"materials":[{"pbrMetallicRoughness":{"baseColorFactor":[1,1,1,1],"metallicFactor":0,"roughnessFactor":1,"baseColorTexture":{"index":0,"texCoord":0}},"alphaMode":"OPAQUE"},{"pbrMetallicRoughness":{"baseColorFactor":[1,1,1,1],"metallicFactor":0,"roughnessFactor":1,"baseColorTexture":{"index":1,"texCoord":0}},"alphaMode":"OPAQUE"},{"pbrMetallicRoughness":{"baseColorFactor":[1,1,1,1],"metallicFactor":0,"roughnessFactor":1,"baseColorTexture":{"index":2,"texCoord":0}},"alphaMode":"OPAQUE"},{"pbrMetallicRoughness":{"baseColorFactor":[1,1,1,1],"metallicFactor":0,"roughnessFactor":1,"baseColorTexture":{"index":3,"texCoord":0}},"alphaMode":"OPAQUE"},{"pbrMetallicRoughness":{"baseColorFactor":[1,1,1,1],"metallicFactor":0,"roughnessFactor":1,"baseColorTexture":{"index":4,"texCoord":0}},"alphaMode":"OPAQUE"},{"pbrMetallicRoughness":{"baseColorFactor":[1,1,1,1],"metallicFactor":0,"roughnessFactor":1,"baseColorTexture":{"index":5,"texCoord":0}},"alphaMode":"OPAQUE"},{"pbrMetallicRoughness":{"baseColorFactor":[1,1,1,1],"metallicFactor":0,"roughnessFactor":1,"baseColorTexture":{"index":6,"texCoord":0}},"alphaMode":"OPAQUE"},{"pbrMetallicRoughness":{"baseColorFactor":[1,1,1,1],"metallicFactor":0,"roughnessFactor":1,"baseColorTexture":{"index":7,"texCoord":0}},"alphaMode":"OPAQUE"},{"pbrMetallicRoughness":{"baseColorFactor":[1,1,1,1],"metallicFactor":0,"roughnessFactor":1,"baseColorTexture":{"index":8,"texCoord":0}},"alphaMode":"OPAQUE"},{"pbrMetallicRoughness":{"baseColorFactor":[1,1,1,1],"metallicFactor":0,"roughnessFactor":1,"baseColorTexture":{"index":9,"texCoord":0}},"alphaMode":"OPAQUE"}],"textures":[{"source":0,"sampler":0},{"source":1,"sampler":0},{"source":2,"sampler":0},{"source":3,"sampler":0},{"source":4,"sampler":0},{"source":5,"sampler":0},{"source":6,"sampler":0},{"source":7,"sampler":0},{"source":8,"sampler":0},{"source":9,"sampler":0}],"images":[{"uri":"../textures/piston_bottom.png"},{"uri":"../textures/piston_side.png"},{"uri":"../textures/iron_block.png"},{"uri":"../textures/observer_top.png"},{"uri":"../textures/redstone_dust_line_off.png"},{"uri":"../textures/stone_slab_top.png"},{"uri":"../textures/repeater.png"},{"uri":"../textures/redstone_torch_off.png"},{"uri":"../textures/cobblestone.png"},{"uri":"../textures/lever.png"}],"samplers":[{"magFilter":9729,"wrapS":10497,"wrapT":10497}],"accessors":[{"bufferView":0,"byteOffset":0,"count":4,"componentType":5126,"type":"VEC3","min":[-0.01269999984651804,-0.01269999984651804,-0.01269999984651804],"max":[-0.01269999984651804,-0.00634999992325902,-0.00634999992325902]},{"bufferView":0,"byteOffset":48,"count":12,"componentType":5126,"type":"VEC3","min":[-0.01269999984651804,-0.01269999984651804,-0.01269999984651804],"max":[-0.00634999992325902,-0.00634999992325902,-0.00634999992325902]},{"bufferView":1,"byteOffset":0,"count":4,"componentType":5126,"type":"VEC2"},{"bufferView":1,"byteOffset":32,"count":12,"componentType":5126,"type":"VEC2"},{"bufferView":2,"byteOffset":0,"count":6,"componentType":5125,"type":"SCALAR"},{"bufferView":2,"byteOffset":24,"count":18,"componentType":5125,"type":"SCALAR"},{"bufferView":3,"byteOffset":0,"count":12,"componentType":5126,"type":"VEC3","min":[-0.00634999992325902,-0.01269999984651804,-0.01269999984651804],"max":[0,-0.00634999992325902,-0.00634999992325902]},{"bufferView":4,"byteOffset":0,"count":12,"componentType":5126,"type":"VEC2"},{"bufferView":5,"byteOffset":0,"count":18,"componentType":5125,"type":"SCALAR"},{"bufferView":6,"byteOffset":0,"count":15,"componentType":5126,"type":"VEC3","min":[-0.01269999984651804,-0.00634999992325902,-0.01269999984651804],"max":[-0.00634999992325902,0,-0.00634999992325902]},{"bufferView":7,"byteOffset":0,"count":15,"componentType":5126,"type":"VEC2"},{"bufferView":8,"byteOffset":0,"count":24,"componentType":5125,"type":"SCALAR"},{"bufferView":9,"byteOffset":0,"count":8,"componentType":5126,"type":"VEC3","min":[-0.00634999992325902,-0.00634999992325902,-0.01269999984651804],"max":[0,0,-0.00634999992325902]},{"bufferView":10,"byteOffset":0,"count":8,"componentType":5126,"type":"VEC2"},{"bufferView":11,"byteOffset":0,"count":12,"componentType":5125,"type":"SCALAR"},{"bufferView":12,"byteOffset":0,"count":15,"componentType":5126,"type":"VEC3","min":[0,-0.00634999992325902,-0.01269999984651804],"max":[0.00634999992325902,0,-0.00634999992325902]},{"bufferView":13,"byteOffset":0,"count":15,"componentType":5126,"type":"VEC2"},{"bufferView":14,"byteOffset":0,"count":24,"componentType":5125,"type":"SCALAR"},{"bufferView":15,"byteOffset":0,"count":4,"componentType":5126,"type":"VEC3","min":[-0.0095250001177191734,0.0001008062536129728,-0.01269999984651804],"max":[-0.00634999992325902,0.0001008062536129728,-0.00634999992325902]},{"bufferView":16,"byteOffset":0,"count":4,"componentType":5126,"type":"VEC2"},{"bufferView":17,"byteOffset":0,"count":6,"componentType":5125,"type":"SCALAR"},{"bufferView":18,"byteOffset":0,"count":4,"componentType":5126,"type":"VEC3","min":[-0.01269999984651804,0.0001008062536129728,-0.01269999984651804],"max":[-0.0095250001177191734,0.0001008062536129728,-0.00634999992325902]},{"bufferView":19,"byteOffset":0,"count":4,"componentType":5126,"type":"VEC2"},{"bufferView":20,"byteOffset":0,"count":6,"componentType":5125,"type":"SCALAR"},{"bufferView":21,"byteOffset":0,"count":16,"componentType":5126,"type":"VEC3","min":[-0.00634999992325902,0,-0.01269999984651804],"max":[0,0.00079374999040737748,-0.00634999992325902]},{"bufferView":21,"byteOffset":192,"count":4,"componentType":5126,"type":"VEC3","min":[-0.00634999992325902,0.00079374999040737748,-0.01269999984651804],"max":[0,0.00079374999040737748,-0.00634999992325902]},{"bufferView":22,"byteOffset":0,"count":16,"componentType":5126,"type":"VEC2"},{"bufferView":22,"byteOffset":128,"count":4,"componentType":5126,"type":"VEC2"},{"bufferView":23,"byteOffset":0,"count":24,"componentType":5125,"type":"SCALAR"},{"bufferView":23,"byteOffset":96,"count":6,"componentType":5125,"type":"SCALAR"},{"bufferView":24,"byteOffset":0,"count":22,"componentType":5126,"type":"VEC3","min":[-0.00317499996162951,0.00079374999040737748,-0.0099218748509883881],"max":[-0.0023812500294297934,0.0027781249955296516,-0.0091281244531273842]},{"bufferView":25,"byteOffset":0,"count":22,"componentType":5126,"type":"VEC2"},{"bufferView":26,"byteOffset":0,"count":36,"componentType":5125,"type":"SCALAR"},{"bufferView":27,"byteOffset":0,"count":22,"componentType":5126,"type":"VEC3","min":[-0.0055562499910593033,0.00079374999040737748,-0.0099218748509883881],"max":[-0.0047625000588595867,0.0027781249955296516,-0.0091281244531273842]},{"bufferView":28,"byteOffset":0,"count":22,"componentType":5126,"type":"VEC2"},{"bufferView":29,"byteOffset":0,"count":36,"componentType":5125,"type":"SCALAR"},{"bufferView":30,"byteOffset":0,"count":4,"componentType":5126,"type":"VEC3","min":[0.00317499996162951,0.0001008062536129728,-0.01269999984651804],"max":[0.00634999992325902,0.0001008062536129728,-0.00634999992325902]},{"bufferView":31,"byteOffset":0,"count":4,"componentType":5126,"type":"VEC2"},{"bufferView":32,"byteOffset":0,"count":6,"componentType":5125,"type":"SCALAR"},{"bufferView":33,"byteOffset":0,"count":4,"componentType":5126,"type":"VEC3","min":[0,0.0001008062536129728,-0.01269999984651804],"max":[0.00317499996162951,0.0001008062536129728,-0.00634999992325902]},{"bufferView":34,"byteOffset":0,"count":4,"componentType":5126,"type":"VEC2"},{"bufferView":35,"byteOffset":0,"count":6,"componentType":5125,"type":"SCALAR"},{"bufferView":36,"byteOffset":0,"count":24,"componentType":5126,"type":"VEC3","min":[0.0019843750633299351,-0.0047625000588595867,-0.00634999992325902],"max":[0.0043656248599290848,-0.001587499980814755,-0.0051593747921288013]},{"bufferView":37,"byteOffset":0,"count":24,"componentType":5126,"type":"VEC2"},{"bufferView":38,"byteOffset":0,"count":36,"componentType":5125,"type":"SCALAR"},{"bufferView":39,"byteOffset":0,"count":22,"componentType":5126,"type":"VEC3","min":[0.0027781249955296516,-0.0035718749277293682,-0.0059531247243285179],"max":[0.0035718749277293682,-0.0027781249955296516,-0.0019843750633299351]},{"bufferView":40,"byteOffset":0,"count":22,"componentType":5126,"type":"VEC2"},{"bufferView":41,"byteOffset":0,"count":36,"componentType":5125,"type":"SCALAR"},{"bufferView":42,"byteOffset":0,"count":15,"componentType":5126,"type":"VEC3","min":[0,-0.01269999984651804,-0.01269999984651804],"max":[0.00634999992325902,-0.00634999992325902,-0.00634999992325902]},{"bufferView":43,"byteOffset":0,"count":15,"componentType":5126,"type":"VEC2"},{"bufferView":44,"byteOffset":0,"count":24,"componentType":5125,"type":"SCALAR"}],"bufferViews":[{"buffer":0,"byteOffset":0,"byteLength":192,"byteStride":12,"target":34962},{"buffer":0,"byteOffset":192,"byteLength":128,"byteStride":8,"target":34962},{"buffer":0,"byteOffset":320,"byteLength":96,"target":34963},{"buffer":0,"byteOffset":416,"byteLength":144,"byteStride":12,"target":34962},{"buffer":0,"byteOffset":560,"byteLength":96,"byteStride":8,"target":34962},{"buffer":0,"byteOffset":656,"byteLength":72,"target":34963},{"buffer":0,"byteOffset":728,"byteLength":180,"byteStride":12,"target":34962},{"buffer":0,"byteOffset":908,"byteLength":120,"byteStride":8,"target":34962},{"buffer":0,"byteOffset":1028,"byteLength":96,"target":34963},{"buffer":0,"byteOffset":1124,"byteLength":96,"byteStride":12,"target":34962},{"buffer":0,"byteOffset":1220,"byteLength":64,"byteStride":8,"target":34962},{"buffer":0,"byteOffset":1284,"byteLength":48,"target":34963},{"buffer":0,"byteOffset":1332,"byteLength":180,"byteStride":12,"target":34962},{"buffer":0,"byteOffset":1512,"byteLength":120,"byteStride":8,"target":34962},{"buffer":0,"byteOffset":1632,"byteLength":96,"target":34963},{"buffer":0,"byteOffset":1728,"byteLength":48,"byteStride":12,"target":34962},{"buffer":0,"byteOffset":1776,"byteLength":32,"byteStride":8,"target":34962},{"buffer":0,"byteOffset":1808,"byteLength":24,"target":34963},{"buffer":0,"byteOffset":1832,"byteLength":48,"byteStride":12,"target":34962},{"buffer":0,"byteOffset":1880,"byteLength":32,"byteStride":8,"target":34962},{"buffer":0,"byteOffset":1912,"byteLength":24,"target":34963},{"buffer":0,"byteOffset":1936,"byteLength":240,"byteStride":12,"target":34962},{"buffer":0,"byteOffset":2176,"byteLength":160,"byteStride":8,"target":34962},{"buffer":0,"byteOffset":2336,"byteLength":120,"target":34963},{"buffer":0,"byteOffset":2456,"byteLength":264,"byteStride":12,"target":34962},{"buffer":0,"byteOffset":2720,"byteLength":176,"byteStride":8,"target":34962},{"buffer":0,"byteOffset":2896,"byteLength":144,"target":34963},{"buffer":0,"byteOffset":3040,"byteLength":264,"byteStride":12,"target":34962},{"buffer":0,"byteOffset":3304,"byteLength":176,"byteStride":8,"target":34962},{"buffer":0,"byteOffset":3480,"byteLength":144,"target":34963},{"buffer":0,"byteOffset":3624,"byteLength":48,"byteStride":12,"target":34962},{"buffer":0,"byteOffset":3672,"byteLength":32,"byteStride":8,"target":34962},{"buffer":0,"byteOffset":3704,"byteLength":24,"target":34963},{"buffer":0,"byteOffset":3728,"byteLength":48,"byteStride":12,"target":34962},{"buffer":0,"byteOffset":3776,"byteLength":32,"byteStride":8,"target":34962},{"buffer":0,"byteOffset":3808,"byteLength":24,"target":34963},{"buffer":0,"byteOffset":3832,"byteLength":288,"byteStride":12,"target":34962},{"buffer":0,"byteOffset":4120,"byteLength":192,"byteStride":8,"target":34962},{"buffer":0,"byteOffset":4312,"byteLength":144,"target":34963},{"buffer":0,"byteOffset":4456,"byteLength":264,"byteStride":12,"target":34962},{"buffer":0,"byteOffset":4720,"byteLength":176,"byteStride":8,"target":34962},{"buffer":0,"byteOffset":4896,"byteLength":144,"target":34963},{"buffer":0,"byteOffset":5040,"byteLength":180,"byteStride":12,"target":34962},{"buffer":0,"byteOffset":5220,"byteLength":120,"byteStride":8,"target":34962},{"buffer":0,"byteOffset":5340,"byteLength":96,"target":34963}],"buffers":[{"byteLength":5436,"uri":"double_extender_2.bin"}]}