{"asset":{"generator":"3D Builder","version":"2.0"},"scene":0,"scenes":[{"nodes":[0]}],"nodes":[{"children":[1,2,3,4,5,6,7,8,9,10]},{"mesh":0,"matrix":[1,0,0,0,0,-1.1920928955078125E-7,-0.99999988079071045,0,0,0.99999988079071045,-1.1920928955078125E-7,0,0,0,0,1]},{"mesh":1,"matrix":[1,0,0,0,0,-1.1920928955078125E-7,-0.99999988079071045,0,0,0.99999988079071045,-1.1920928955078125E-7,0,0,0,0,1]},{"mesh":2,"matrix":[1,0,0,0,0,-1.1920928955078125E-7,-0.99999988079071045,0,0,0.99999988079071045,-1.1920928955078125E-7,0,0,0,0,1]},{"mesh":3,"matrix":[1,0,0,0,0,-1.1920928955078125E-7,-0.99999988079071045,0,0,0.99999988079071045,-1.1920928955078125E-7,0,0,0,0,1]},{"mesh":4,"matrix":[1,0,0,0,0,-1.1920928955078125E-7,-0.99999988079071045,0,0,0.99999988079071045,-1.1920928955078125E-7,0,0,0,0,1]},{"mesh":5,"matrix":[1,0,0,0,0,-1.1920928955078125E-7,-0.99999988079071045,0,0,0.99999988079071045,-1.1920928955078125E-7,0,0,0,0,1]},{"mesh":6,"matrix":[1,0,0,0,0,-1.1920928955078125E-7,-0.99999988079071045,0,0,0.99999988079071045,-1.1920928955078125E-7,0,0,0,0,1]},{"mesh":7,"matrix":[1,0,0,0,0,-1.1920928955078125E-7,-0.99999988079071045,0,0,0.99999988079071045,-1.1920928955078125E-7,0,0,0,0,1]},{"mesh":8,"matrix":[1,0,0,0,0,-1.1920928955078125E-7,-0.99999988079071045,0,0,0.99999988079071045,-1.1920928955078125E-7,0,0,0,0,1]},{"mesh":9,"matrix":[1,0,0,0,0,-1.1920928955078125E-7,-0.99999988079071045,0,0,0.99999988079071045,-1.1920928955078125E-7,0,0,0,0,1]}],"meshes":[{"primitives":[{"attributes":{"POSITION":0,"TEXCOORD_0":3},"mode":4,"indices":6,"material":0},{"attributes":{"POSITION":1,"TEXCOORD_0":4},"mode":4,"indices":7,"material":1},{"attributes":{"POSITION":2,"TEXCOORD_0":5},"mode":4,"indices":8,"material":2}]},{"primitives":[{"attributes":{"POSITION":9,"TEXCOORD_0":11},"mode":4,"indices":13,"material":1},{"attributes":{"POSITION":10,"TEXCOORD_0":12},"mode":4,"indices":14,"material":2}]},{"primitives":[{"attributes":{"POSITION":15,"TEXCOORD_0":17},"mode":4,"indices":19,"material":3},{"attributes":{"POSITION":16,"TEXCOORD_0":18},"mode":4,"indices":20,"material":4}]},{"primitives":[{"attributes":{"POSITION":21,"TEXCOORD_0":23},"mode":4,"indices":25,"material":2},{"attributes":{"POSITION":22,"TEXCOORD_0":24},"mode":4,"indices":26,"material":1}]},{"primitives":[{"attributes":{"POSITION":27,"TEXCOORD_0":28},"mode":4,"indices":29,"material":2}]},{"primitives":[{"attributes":{"POSITION":30,"TEXCOORD_0":31},"mode":4,"indices":32,"material":3}]},{"primitives":[{"attributes":{"POSITION":33,"TEXCOORD_0":36},"mode":4,"indices":39,"material":2},{"attributes":{"POSITION":34,"TEXCOORD_0":37},"mode":4,"indices":40,"material":5},{"attributes":{"POSITION":35,"TEXCOORD_0":38},"mode":4,"indices":41,"material":1}]},{"primitives":[{"attributes":{"POSITION":42,"TEXCOORD_0":44},"mode":4,"indices":46,"material":1},{"attributes":{"POSITION":43,"TEXCOORD_0":45},"mode":4,"indices":47,"material":2}]},{"primitives":[{"attributes":{"POSITION":48,"TEXCOORD_0":49},"mode":4,"indices":50,"material":6}]},{"primitives":[{"attributes":{"POSITION":51,"TEXCOORD_0":52},"mode":4,"indices":53,"material":7}]}],"materials":[{"pbrMetallicRoughness":{"baseColorFactor":[1,1,1,1],"metallicFactor":0,"roughnessFactor":1,"baseColorTexture":{"index":0,"texCoord":0}},"alphaMode":"OPAQUE"},{"pbrMetallicRoughness":{"baseColorFactor":[1,1,1,1],"metallicFactor":0,"roughnessFactor":1,"baseColorTexture":{"index":1,"texCoord":0}},"alphaMode":"OPAQUE"},{"pbrMetallicRoughness":{"baseColorFactor":[1,1,1,1],"metallicFactor":0,"roughnessFactor":1,"baseColorTexture":{"index":2,"texCoord":0}},"alphaMode":"OPAQUE"},{"pbrMetallicRoughness":{"baseColorFactor":[1,1,1,1],"metallicFactor":0,"roughnessFactor":1,"baseColorTexture":{"index":3,"texCoord":0}},"alphaMode":"OPAQUE"},{"pbrMetallicRoughness":{"baseColorFactor":[1,1,1,1],"metallicFactor":0,"roughnessFactor":1,"baseColorTexture":{"index":4,"texCoord":0}},"alphaMode":"OPAQUE"},{"pbrMetallicRoughness":{"baseColorFactor":[1,1,1,1],"metallicFactor":0,"roughnessFactor":1,"baseColorTexture":{"index":5,"texCoord":0}},"alphaMode":"OPAQUE"},{"pbrMetallicRoughness":{"baseColorFactor":[1,1,1,1],"metallicFactor":0,"roughnessFactor":1,"baseColorTexture":{"index":6,"texCoord":0}},"alphaMode":"OPAQUE"},{"pbrMetallicRoughness":{"baseColorFactor":[1,1,1,1],"metallicFactor":0,"roughnessFactor":1,"baseColorTexture":{"index":7,"texCoord":0}},"alphaMode":"OPAQUE"}],"textures":[{"source":0,"sampler":0},{"source":1,"sampler":0},{"source":2,"sampler":0},{"source":3,"sampler":0},{"source":4,"sampler":0},{"source":5,"sampler":0},{"source":6,"sampler":0},{"source":7,"sampler":0}],"images":[{"uri":"../textures/observer_front.png"},{"uri":"../textures/observer_top.png"},{"uri":"../textures/observer_side.png"},{"uri":"../textures/piston_side.png"},{"uri":"../textures/piston_bottom.png"},{"uri":"../textures/observer_back.png"},{"uri":"../textures/iron_block.png"},{"uri":"../textures/stone.png"}],"samplers":[{"magFilter":9729,"wrapS":10497,"wrapT":10497}],"accessors":[{"bufferView":0,"byteOffset":0,"count":4,"componentType":5126,"type":"VEC3","min":[0.00634999992325902,0,0],"max":[0.00634999992325902,0.00634999992325902,0.00634999992325902]},{"bufferView":0,"byteOffset":48,"count":4,"componentType":5126,"type":"VEC3","min":[0.00634999992325902,0,0],"max":[0.01269999984651804,0,0.00634999992325902]},{"bufferView":0,"byteOffset":96,"count":8,"componentType":5126,"type":"VEC3","min":[0.00634999992325902,0,0],"max":[0.01269999984651804,0.00634999992325902,0.00634999992325902]},{"bufferView":1,"byteOffset":0,"count":4,"componentType":5126,"type":"VEC2"},{"bufferView":1,"byteOffset":32,"count":4,"componentType":5126,"type":"VEC2"},{"bufferView":1,"byteOffset":64,"count":8,"componentType":5126,"type":"VEC2"},{"bufferView":2,"byteOffset":0,"count":6,"componentType":5125,"type":"SCALAR"},{"bufferView":2,"byteOffset":24,"count":6,"componentType":5125,"type":"SCALAR"},{"bufferView":2,"byteOffset":48,"count":12,"componentType":5125,"type":"SCALAR"},{"bufferView":3,"byteOffset":0,"count":4,"componentType":5126,"type":"VEC3","min":[0.01269999984651804,0,0],"max":[0.019050000235438347,0,0.00634999992325902]},{"bufferView":3,"byteOffset":48,"count":8,"componentType":5126,"type":"VEC3","min":[0.01269999984651804,0,0],"max":[0.019050000235438347,0.00634999992325902,0.00634999992325902]},{"bufferView":4,"byteOffset":0,"count":4,"componentType":5126,"type":"VEC2"},{"bufferView":4,"byteOffset":32,"count":8,"componentType":5126,"type":"VEC2"},{"bufferView":5,"byteOffset":0,"count":6,"componentType":5125,"type":"SCALAR"},{"bufferView":5,"byteOffset":24,"count":12,"componentType":5125,"type":"SCALAR"},{"bufferView":6,"byteOffset":0,"count":12,"componentType":5126,"type":"VEC3","min":[0.019050000235438347,0,0],"max":[0.025399999693036079,0.00634999992325902,0.00634999992325902]},{"bufferView":6,"byteOffset":144,"count":4,"componentType":5126,"type":"VEC3","min":[0.019050000235438347,0,0],"max":[0.025399999693036079,0,0.00634999992325902]},{"bufferView":7,"byteOffset":0,"count":12,"componentType":5126,"type":"VEC2"},{"bufferView":7,"byteOffset":96,"count":4,"componentType":5126,"type":"VEC2"},{"bufferView":8,"byteOffset":0,"count":18,"componentType":5125,"type":"SCALAR"},{"bufferView":8,"byteOffset":72,"count":6,"componentType":5125,"type":"SCALAR"},{"bufferView":9,"byteOffset":0,"count":4,"componentType":5126,"type":"VEC3","min":[0.00634999992325902,0.00634999992325902,0],"max":[0.00634999992325902,0.01269999984651804,0.00634999992325902]},{"bufferView":9,"byteOffset":48,"count":8,"componentType":5126,"type":"VEC3","min":[0.00634999992325902,0.00634999992325902,0],"max":[0.01269999984651804,0.01269999984651804,0.00634999992325902]},{"bufferView":10,"byteOffset":0,"count":4,"componentType":5126,"type":"VEC2"},{"bufferView":10,"byteOffset":32,"count":8,"componentType":5126,"type":"VEC2"},{"bufferView":11,"byteOffset":0,"count":6,"componentType":5125,"type":"SCALAR"},{"bufferView":11,"byteOffset":24,"count":12,"componentType":5125,"type":"SCALAR"},{"bufferView":12,"byteOffset":0,"count":8,"componentType":5126,"type":"VEC3","min":[0.01269999984651804,0.00634999992325902,0],"max":[0.019050000235438347,0.01269999984651804,0.00634999992325902]},{"bufferView":13,"byteOffset":0,"count":8,"componentType":5126,"type":"VEC2"},{"bufferView":14,"byteOffset":0,"count":12,"componentType":5125,"type":"SCALAR"},{"bufferView":15,"byteOffset":0,"count":12,"componentType":5126,"type":"VEC3","min":[0.019050000235438347,0.00634999992325902,0],"max":[0.025399999693036079,0.01269999984651804,0.00634999992325902]},{"bufferView":16,"byteOffset":0,"count":12,"componentType":5126,"type":"VEC2"},{"bufferView":17,"byteOffset":0,"count":18,"componentType":5125,"type":"SCALAR"},{"bufferView":18,"byteOffset":0,"count":4,"componentType":5126,"type":"VEC3","min":[0.00634999992325902,0.01269999984651804,0],"max":[0.00634999992325902,0.019050000235438347,0.00634999992325902]},{"bufferView":18,"byteOffset":48,"count":4,"componentType":5126,"type":"VEC3","min":[0.00634999992325902,0.019050000235438347,0],"max":[0.01269999984651804,0.019050000235438347,0.00634999992325902]},{"bufferView":18,"byteOffset":96,"count":8,"componentType":5126,"type":"VEC3","min":[0.00634999992325902,0.01269999984651804,0],"max":[0.01269999984651804,0.019050000235438347,0.00634999992325902]},{"bufferView":19,"byteOffset":0,"count":4,"componentType":5126,"type":"VEC2"},{"bufferView":19,"byteOffset":32,"count":4,"componentType":5126,"type":"VEC2"},{"bufferView":19,"byteOffset":64,"count":8,"componentType":5126,"type":"VEC2"},{"bufferView":20,"byteOffset":0,"count":6,"componentType":5125,"type":"SCALAR"},{"bufferView":20,"byteOffset":24,"count":6,"componentType":5125,"type":"SCALAR"},{"bufferView":20,"byteOffset":48,"count":12,"componentType":5125,"type":"SCALAR"},{"bufferView":21,"byteOffset":0,"count":4,"componentType":5126,"type":"VEC3","min":[0.01269999984651804,0.019050000235438347,0],"max":[0.019050000235438347,0.019050000235438347,0.00634999992325902]},{"bufferView":21,"byteOffset":48,"count":8,"componentType":5126,"type":"VEC3","min":[0.01269999984651804,0.01269999984651804,0],"max":[0.019050000235438347,0.019050000235438347,0.00634999992325902]},{"bufferView":22,"byteOffset":0,"count":4,"componentType":5126,"type":"VEC2"},{"bufferView":22,"byteOffset":32,"count":8,"componentType":5126,"type":"VEC2"},{"bufferView":23,"byteOffset":0,"count":6,"componentType":5125,"type":"SCALAR"},{"bufferView":23,"byteOffset":24,"count":12,"componentType":5125,"type":"SCALAR"},{"bufferView":24,"byteOffset":0,"count":15,"componentType":5126,"type":"VEC3","min":[0.019050000235438347,0.01269999984651804,0],"max":[0.025399999693036079,0.019050000235438347,0.00634999992325902]},{"bufferView":25,"byteOffset":0,"count":15,"componentType":5126,"type":"VEC2"},{"bufferView":26,"byteOffset":0,"count":24,"componentType":5125,"type":"SCALAR"},{"bufferView":27,"byteOffset":0,"count":20,"componentType":5126,"type":"VEC3","min":[0.0055562499910593033,0.0023812500294297934,0.0019843750633299351],"max":[0.00634999992325902,0.00396875012665987,0.0043656248599290848]},{"bufferView":28,"byteOffset":0,"count":20,"componentType":5126,"type":"VEC2"},{"bufferView":29,"byteOffset":0,"count":30,"componentType":5125,"type":"SCALAR"}],"bufferViews":[{"buffer":0,"byteOffset":0,"byteLength":192,"byteStride":12,"target":34962},{"buffer":0,"byteOffset":192,"byteLength":128,"byteStride":8,"target":34962},{"buffer":0,"byteOffset":320,"byteLength":96,"target":34963},{"buffer":0,"byteOffset":416,"byteLength":144,"byteStride":12,"target":34962},{"buffer":0,"byteOffset":560,"byteLength":96,"byteStride":8,"target":34962},{"buffer":0,"byteOffset":656,"byteLength":72,"target":34963},{"buffer":0,"byteOffset":728,"byteLength":192,"byteStride":12,"target":34962},{"buffer":0,"byteOffset":920,"byteLength":128,"byteStride":8,"target":34962},{"buffer":0,"byteOffset":1048,"byteLength":96,"target":34963},{"buffer":0,"byteOffset":1144,"byteLength":144,"byteStride":12,"target":34962},{"buffer":0,"byteOffset":1288,"byteLength":96,"byteStride":8,"target":34962},{"buffer":0,"byteOffset":1384,"byteLength":72,"target":34963},{"buffer":0,"byteOffset":1456,"byteLength":96,"byteStride":12,"target":34962},{"buffer":0,"byteOffset":1552,"byteLength":64,"byteStride":8,"target":34962},{"buffer":0,"byteOffset":1616,"byteLength":48,"target":34963},{"buffer":0,"byteOffset":1664,"byteLength":144,"byteStride":12,"target":34962},{"buffer":0,"byteOffset":1808,"byteLength":96,"byteStride":8,"target":34962},{"buffer":0,"byteOffset":1904,"byteLength":72,"target":34963},{"buffer":0,"byteOffset":1976,"byteLength":192,"byteStride":12,"target":34962},{"buffer":0,"byteOffset":2168,"byteLength":128,"byteStride":8,"target":34962},{"buffer":0,"byteOffset":2296,"byteLength":96,"target":34963},{"buffer":0,"byteOffset":2392,"byteLength":144,"byteStride":12,"target":34962},{"buffer":0,"byteOffset":2536,"byteLength":96,"byteStride":8,"target":34962},{"buffer":0,"byteOffset":2632,"byteLength":72,"target":34963},{"buffer":0,"byteOffset":2704,"byteLength":180,"byteStride":12,"target":34962},{"buffer":0,"byteOffset":2884,"byteLength":120,"byteStride":8,"target":34962},{"buffer":0,"byteOffset":3004,"byteLength":96,"target":34963},{"buffer":0,"byteOffset":3100,"byteLength":240,"byteStride":12,"target":34962},{"buffer":0,"byteOffset":3340,"byteLength":160,"byteStride":8,"target":34962},{"buffer":0,"byteOffset":3500,"byteLength":120,"target":34963}],"buffers":[{"byteLength":3620,"uri":"double_extender_5.bin"}]}