{"asset":{"generator":"3D Builder","version":"2.0"},"scene":0,"scenes":[{"nodes":[0]}],"nodes":[{"children":[1,2,3,4,5,6,7,8,9,10,11,12,13,14]},{"mesh":0,"matrix":[1,0,0,0,0,-1.1920928955078125E-7,-0.99999988079071045,0,0,0.99999988079071045,-1.1920928955078125E-7,0,0,0,0,1]},{"mesh":1,"matrix":[1,0,0,0,0,-1.1920928955078125E-7,-0.99999988079071045,0,0,0.99999988079071045,-1.1920928955078125E-7,0,0,0,0,1]},{"mesh":2,"matrix":[1,0,0,0,0,-1.1920928955078125E-7,-0.99999988079071045,0,0,0.99999988079071045,-1.1920928955078125E-7,0,0,0,0,1]},{"mesh":3,"matrix":[1,0,0,0,0,-1.1920928955078125E-7,-0.99999988079071045,0,0,0.99999988079071045,-1.1920928955078125E-7,0,0,0,0,1]},{"mesh":4,"matrix":[1,0,0,0,0,-1.1920928955078125E-7,-0.99999988079071045,0,0,0.99999988079071045,-1.1920928955078125E-7,0,0,0,0,1]},{"mesh":5,"matrix":[1,0,0,0,0,-1.1920928955078125E-7,-0.99999988079071045,0,0,0.99999988079071045,-1.1920928955078125E-7,0,0,0,0,1]},{"mesh":6,"matrix":[1,0,0,0,0,-1.1920928955078125E-7,-0.99999988079071045,0,0,0.99999988079071045,-1.1920928955078125E-7,0,0,0,0,1]},{"mesh":7,"matrix":[1,0,0,0,0,-1.1920928955078125E-7,-0.99999988079071045,0,0,0.99999988079071045,-1.1920928955078125E-7,0,0,0,0,1]},{"mesh":8,"matrix":[1,0,0,0,0,-1.1920928955078125E-7,-0.99999988079071045,0,0,0.99999988079071045,-1.1920928955078125E-7,0,0,0,0,1]},{"mesh":9,"matrix":[1,0,0,0,0,-1.1920928955078125E-7,-0.99999988079071045,0,0,0.99999988079071045,-1.1920928955078125E-7,0,0,0,0,1]},{"mesh":10,"matrix":[1,0,0,0,0,-1.1920928955078125E-7,-0.99999988079071045,0,0,0.99999988079071045,-1.1920928955078125E-7,0,0,0,0,1]},{"mesh":11,"matrix":[1,0,0,0,0,-1.1920928955078125E-7,-0.99999988079071045,0,0,0.99999988079071045,-1.1920928955078125E-7,0,0,0,0,1]},{"mesh":12,"matrix":[1,0,0,0,0,-1.1920928955078125E-7,-0.99999988079071045,0,0,0.99999988079071045,-1.1920928955078125E-7,0,0,0,0,1]},{"mesh":13,"matrix":[1,0,0,0,0,-1.1920928955078125E-7,-0.99999988079071045,0,0,0.99999988079071045,-1.1920928955078125E-7,0,0,0,0,1]}],"meshes":[{"primitives":[{"attributes":{"POSITION":0,"TEXCOORD_0":1},"mode":4,"indices":2,"material":0}]},{"primitives":[{"attributes":{"POSITION":3,"TEXCOORD_0":4},"mode":4,"indices":5,"material":0}]},{"primitives":[{"attributes":{"POSITION":6,"TEXCOORD_0":7},"mode":4,"indices":8,"material":0}]},{"primitives":[{"attributes":{"POSITION":9,"TEXCOORD_0":10},"mode":4,"indices":11,"material":1}]},{"primitives":[{"attributes":{"POSITION":12,"TEXCOORD_0":15},"mode":4,"indices":18,"material":2},{"attributes":{"POSITION":13,"TEXCOORD_0":16},"mode":4,"indices":19,"material":3},{"attributes":{"POSITION":14,"TEXCOORD_0":17},"mode":4,"indices":20,"material":4}]},{"primitives":[{"attributes":{"POSITION":21,"TEXCOORD_0":22},"mode":4,"indices":23,"material":1}]},{"primitives":[{"attributes":{"POSITION":24,"TEXCOORD_0":25},"mode":4,"indices":26,"material":0}]},{"primitives":[{"attributes":{"POSITION":27,"TEXCOORD_0":28},"mode":4,"indices":29,"material":0}]},{"primitives":[{"attributes":{"POSITION":30,"TEXCOORD_0":31},"mode":4,"indices":32,"material":5}]},{"primitives":[{"attributes":{"POSITION":33,"TEXCOORD_0":34},"mode":4,"indices":35,"material":6}]},{"primitives":[{"attributes":{"POSITION":36,"TEXCOORD_0":38},"mode":4,"indices":40,"material":7},{"attributes":{"POSITION":37,"TEXCOORD_0":39},"mode":4,"indices":41,"material":8}]},{"primitives":[{"attributes":{"POSITION":42,"TEXCOORD_0":43},"mode":4,"indices":44,"material":9}]},{"primitives":[{"attributes":{"POSITION":45,"TEXCOORD_0":46},"mode":4,"indices":47,"material":9}]},{"primitives":[{"attributes":{"POSITION":48,"TEXCOORD_0":49},"mode":4,"indices":50,"material":6}]}],"materials":[{"pbrMetallicRoughness":{"baseColorFactor":[1,1,1,1],"metallicFactor":0,"roughnessFactor":1,"baseColorTexture":{"index":0,"texCoord":0}},"alphaMode":"OPAQUE"},{"pbrMetallicRoughness":{"baseColorFactor":[1,1,1,1],"metallicFactor":0,"roughnessFactor":1,"baseColorTexture":{"index":1,"texCoord":0}},"alphaMode":"OPAQUE"},{"pbrMetallicRoughness":{"baseColorFactor":[1,1,1,1],"metallicFactor":0,"roughnessFactor":1,"baseColorTexture":{"index":2,"texCoord":0}},"alphaMode":"OPAQUE"},{"pbrMetallicRoughness":{"baseColorFactor":[1,1,1,1],"metallicFactor":0,"roughnessFactor":1,"baseColorTexture":{"index":3,"texCoord":0}},"alphaMode":"OPAQUE"},{"pbrMetallicRoughness":{"baseColorFactor":[1,1,1,1],"metallicFactor":0,"roughnessFactor":1,"baseColorTexture":{"index":4,"texCoord":0}},"alphaMode":"OPAQUE"},{"pbrMetallicRoughness":{"baseColorFactor":[1,1,1,1],"metallicFactor":0,"roughnessFactor":1,"baseColorTexture":{"index":5,"texCoord":0}},"alphaMode":"OPAQUE"},{"pbrMetallicRoughness":{"baseColorFactor":[1,1,1,1],"metallicFactor":0,"roughnessFactor":1,"baseColorTexture":{"index":6,"texCoord":0}},"alphaMode":"OPAQUE"},{"pbrMetallicRoughness":{"baseColorFactor":[1,1,1,1],"metallicFactor":0,"roughnessFactor":1,"baseColorTexture":{"index":7,"texCoord":0}},"alphaMode":"OPAQUE"},{"pbrMetallicRoughness":{"baseColorFactor":[1,1,1,1],"metallicFactor":0,"roughnessFactor":1,"baseColorTexture":{"index":8,"texCoord":0}},"alphaMode":"OPAQUE"},{"pbrMetallicRoughness":{"baseColorFactor":[1,1,1,1],"metallicFactor":0,"roughnessFactor":1,"baseColorTexture":{"index":9,"texCoord":0}},"alphaMode":"OPAQUE"}],"textures":[{"source":0,"sampler":0},{"source":1,"sampler":0},{"source":2,"sampler":0},{"source":3,"sampler":0},{"source":4,"sampler":0},{"source":5,"sampler":0},{"source":6,"sampler":0},{"source":7,"sampler":0},{"source":8,"sampler":0},{"source":9,"sampler":0}],"images":[{"uri":"../textures/iron_block.png"},{"uri":"../textures/piston_side.png"},{"uri":"../textures/observer_side.png"},{"uri":"../textures/observer_front.png"},{"uri":"../textures/observer_top.png"},{"uri":"../textures/stone.png"},{"uri":"../textures/redstone_dust_line_off.png"},{"uri":"../textures/stone_slab_top.png"},{"uri":"../textures/repeater.png"},{"uri":"../textures/redstone_torch_off.png"}],"samplers":[{"magFilter":9729,"wrapS":10497,"wrapT":10497}],"accessors":[{"bufferView":0,"byteOffset":0,"count":18,"componentType":5126,"type":"VEC3","min":[0.00634999992325902,0,0],"max":[0.01269999984651804,0.00634999992325902,0.00634999992325902]},{"bufferView":1,"byteOffset":0,"count":18,"componentType":5126,"type":"VEC2"},{"bufferView":2,"byteOffset":0,"count":30,"componentType":5125,"type":"SCALAR"},{"bufferView":3,"byteOffset":0,"count":12,"componentType":5126,"type":"VEC3","min":[0.01269999984651804,0,0],"max":[0.019050000235438347,0.00634999992325902,0.00634999992325902]},{"bufferView":4,"byteOffset":0,"count":12,"componentType":5126,"type":"VEC2"},{"bufferView":5,"byteOffset":0,"count":18,"componentType":5125,"type":"SCALAR"},{"bufferView":6,"byteOffset":0,"count":15,"componentType":5126,"type":"VEC3","min":[0.019050000235438347,0,0],"max":[0.025399999693036079,0.00634999992325902,0.00634999992325902]},{"bufferView":7,"byteOffset":0,"count":15,"componentType":5126,"type":"VEC2"},{"bufferView":8,"byteOffset":0,"count":24,"componentType":5125,"type":"SCALAR"},{"bufferView":9,"byteOffset":0,"count":16,"componentType":5126,"type":"VEC3","min":[0.019050000235438347,0.00634999992325902,0],"max":[0.025399999693036079,0.01269999984651804,0.00634999992325902]},{"bufferView":10,"byteOffset":0,"count":16,"componentType":5126,"type":"VEC2"},{"bufferView":11,"byteOffset":0,"count":24,"componentType":5125,"type":"SCALAR"},{"bufferView":12,"byteOffset":0,"count":4,"componentType":5126,"type":"VEC3","min":[0.01269999984651804,0.01269999984651804,0],"max":[0.01269999984651804,0.019050000235438347,0.00634999992325902]},{"bufferView":12,"byteOffset":48,"count":4,"componentType":5126,"type":"VEC3","min":[0.01269999984651804,0.01269999984651804,0],"max":[0.019050000235438347,0.01269999984651804,0.00634999992325902]},{"bufferView":12,"byteOffset":96,"count":8,"componentType":5126,"type":"VEC3","min":[0.01269999984651804,0.01269999984651804,0],"max":[0.019050000235438347,0.019050000235438347,0.00634999992325902]},{"bufferView":13,"byteOffset":0,"count":4,"componentType":5126,"type":"VEC2"},{"bufferView":13,"byteOffset":32,"count":4,"componentType":5126,"type":"VEC2"},{"bufferView":13,"byteOffset":64,"count":8,"componentType":5126,"type":"VEC2"},{"bufferView":14,"byteOffset":0,"count":6,"componentType":5125,"type":"SCALAR"},{"bufferView":14,"byteOffset":24,"count":6,"componentType":5125,"type":"SCALAR"},{"bufferView":14,"byteOffset":48,"count":12,"componentType":5125,"type":"SCALAR"},{"bufferView":15,"byteOffset":0,"count":12,"componentType":5126,"type":"VEC3","min":[0.019050000235438347,0.01269999984651804,0],"max":[0.025399999693036079,0.019050000235438347,0.00634999992325902]},{"bufferView":16,"byteOffset":0,"count":12,"componentType":5126,"type":"VEC2"},{"bufferView":17,"byteOffset":0,"count":18,"componentType":5125,"type":"SCALAR"},{"bufferView":18,"byteOffset":0,"count":15,"componentType":5126,"type":"VEC3","min":[0.01269999984651804,0.019050000235438347,0],"max":[0.019050000235438347,0.025399999693036079,0.00634999992325902]},{"bufferView":19,"byteOffset":0,"count":15,"componentType":5126,"type":"VEC2"},{"bufferView":20,"byteOffset":0,"count":24,"componentType":5125,"type":"SCALAR"},{"bufferView":21,"byteOffset":0,"count":15,"componentType":5126,"type":"VEC3","min":[0.019050000235438347,0.019050000235438347,0],"max":[0.025399999693036079,0.025399999693036079,0.00634999992325902]},{"bufferView":22,"byteOffset":0,"count":15,"componentType":5126,"type":"VEC2"},{"bufferView":23,"byteOffset":0,"count":24,"componentType":5125,"type":"SCALAR"},{"bufferView":24,"byteOffset":0,"count":20,"componentType":5126,"type":"VEC3","min":[0.0055562499910593033,0.0023812500294297934,0.0019843750633299351],"max":[0.00634999992325902,0.00396875012665987,0.0043656248599290848]},{"bufferView":25,"byteOffset":0,"count":20,"componentType":5126,"type":"VEC2"},{"bufferView":26,"byteOffset":0,"count":30,"componentType":5125,"type":"SCALAR"},{"bufferView":27,"byteOffset":0,"count":4,"componentType":5126,"type":"VEC3","min":[0.00634999992325902,0.0064508062787353992,0],"max":[0.0095250001177191734,0.0064508062787353992,0.00634999992325902]},{"bufferView":28,"byteOffset":0,"count":4,"componentType":5126,"type":"VEC2"},{"bufferView":29,"byteOffset":0,"count":6,"componentType":5125,"type":"SCALAR"},{"bufferView":30,"byteOffset":0,"count":12,"componentType":5126,"type":"VEC3","min":[0.01269999984651804,0.00634999992325902,0],"max":[0.019050000235438347,0.0071437498554587364,0.00634999992325902]},{"bufferView":30,"byteOffset":144,"count":4,"componentType":5126,"type":"VEC3","min":[0.01269999984651804,0.0071437498554587364,0],"max":[0.019050000235438347,0.0071437498554587364,0.00634999992325902]},{"bufferView":31,"byteOffset":0,"count":12,"componentType":5126,"type":"VEC2"},{"bufferView":31,"byteOffset":96,"count":4,"componentType":5126,"type":"VEC2"},{"bufferView":32,"byteOffset":0,"count":18,"componentType":5125,"type":"SCALAR"},{"bufferView":32,"byteOffset":72,"count":6,"componentType":5125,"type":"SCALAR"},{"bufferView":33,"byteOffset":0,"count":22,"componentType":5126,"type":"VEC3","min":[0.013493750244379044,0.0071437498554587364,0.0027781249955296516],"max":[0.014287499710917473,0.0091281244531273842,0.0035718749277293682]},{"bufferView":34,"byteOffset":0,"count":22,"componentType":5126,"type":"VEC2"},{"bufferView":35,"byteOffset":0,"count":36,"componentType":5125,"type":"SCALAR"},{"bufferView":36,"byteOffset":0,"count":22,"componentType":5126,"type":"VEC3","min":[0.017462499439716339,0.0071437498554587364,0.0027781249955296516],"max":[0.018256248906254768,0.0091281244531273842,0.0035718749277293682]},{"bufferView":37,"byteOffset":0,"count":22,"componentType":5126,"type":"VEC2"},{"bufferView":38,"byteOffset":0,"count":36,"componentType":5125,"type":"SCALAR"},{"bufferView":39,"byteOffset":0,"count":4,"componentType":5126,"type":"VEC3","min":[0.0095250001177191734,0.0064508062787353992,0],"max":[0.01269999984651804,0.0064508062787353992,0.00634999992325902]},{"bufferView":40,"byteOffset":0,"count":4,"componentType":5126,"type":"VEC2"},{"bufferView":41,"byteOffset":0,"count":6,"componentType":5125,"type":"SCALAR"}],"bufferViews":[{"buffer":0,"byteOffset":0,"byteLength":216,"byteStride":12,"target":34962},{"buffer":0,"byteOffset":216,"byteLength":144,"byteStride":8,"target":34962},{"buffer":0,"byteOffset":360,"byteLength":120,"target":34963},{"buffer":0,"byteOffset":480,"byteLength":144,"byteStride":12,"target":34962},{"buffer":0,"byteOffset":624,"byteLength":96,"byteStride":8,"target":34962},{"buffer":0,"byteOffset":720,"byteLength":72,"target":34963},{"buffer":0,"byteOffset":792,"byteLength":180,"byteStride":12,"target":34962},{"buffer":0,"byteOffset":972,"byteLength":120,"byteStride":8,"target":34962},{"buffer":0,"byteOffset":1092,"byteLength":96,"target":34963},{"buffer":0,"byteOffset":1188,"byteLength":192,"byteStride":12,"target":34962},{"buffer":0,"byteOffset":1380,"byteLength":128,"byteStride":8,"target":34962},{"buffer":0,"byteOffset":1508,"byteLength":96,"target":34963},{"buffer":0,"byteOffset":1604,"byteLength":192,"byteStride":12,"target":34962},{"buffer":0,"byteOffset":1796,"byteLength":128,"byteStride":8,"target":34962},{"buffer":0,"byteOffset":1924,"byteLength":96,"target":34963},{"buffer":0,"byteOffset":2020,"byteLength":144,"byteStride":12,"target":34962},{"buffer":0,"byteOffset":2164,"byteLength":96,"byteStride":8,"target":34962},{"buffer":0,"byteOffset":2260,"byteLength":72,"target":34963},{"buffer":0,"byteOffset":2332,"byteLength":180,"byteStride":12,"target":34962},{"buffer":0,"byteOffset":2512,"byteLength":120,"byteStride":8,"target":34962},{"buffer":0,"byteOffset":2632,"byteLength":96,"target":34963},{"buffer":0,"byteOffset":2728,"byteLength":180,"byteStride":12,"target":34962},{"buffer":0,"byteOffset":2908,"byteLength":120,"byteStride":8,"target":34962},{"buffer":0,"byteOffset":3028,"byteLength":96,"target":34963},{"buffer":0,"byteOffset":3124,"byteLength":240,"byteStride":12,"target":34962},{"buffer":0,"byteOffset":3364,"byteLength":160,"byteStride":8,"target":34962},{"buffer":0,"byteOffset":3524,"byteLength":120,"target":34963},{"buffer":0,"byteOffset":3644,"byteLength":48,"byteStride":12,"target":34962},{"buffer":0,"byteOffset":3692,"byteLength":32,"byteStride":8,"target":34962},{"buffer":0,"byteOffset":3724,"byteLength":24,"target":34963},{"buffer":0,"byteOffset":3748,"byteLength":192,"byteStride":12,"target":34962},{"buffer":0,"byteOffset":3940,"byteLength":128,"byteStride":8,"target":34962},{"buffer":0,"byteOffset":4068,"byteLength":96,"target":34963},{"buffer":0,"byteOffset":4164,"byteLength":264,"byteStride":12,"target":34962},{"buffer":0,"byteOffset":4428,"byteLength":176,"byteStride":8,"target":34962},{"buffer":0,"byteOffset":4604,"byteLength":144,"target":34963},{"buffer":0,"byteOffset":4748,"byteLength":264,"byteStride":12,"target":34962},{"buffer":0,"byteOffset":5012,"byteLength":176,"byteStride":8,"target":34962},{"buffer":0,"byteOffset":5188,"byteLength":144,"target":34963},{"buffer":0,"byteOffset":5332,"byteLength":48,"byteStride":12,"target":34962},{"buffer":0,"byteOffset":5380,"byteLength":32,"byteStride":8,"target":34962},{"buffer":0,"byteOffset":5412,"byteLength":24,"target":34963}],"buffers":[{"byteLength":5436,"uri":"double_extender_1.bin"}]}