{
    "asset": {
        "generator": "3D Builder",
        "version": "2.0"
    },
    "scene": 0,
    "scenes": [
        {
            "nodes": [
                0
            ]
        }
    ],
    "nodes": [
        {
            "mesh": 0,
            "matrix": [
                1,
                0,
                0,
                0,
                0,
                -1.1920928955078125E-7,
                -0.99999988079071045,
                0,
                0,
                0.99999988079071045,
                -1.1920928955078125E-7,
                0,
                0,
                -0.038099996745586395,
                4.5418739880176418E-9,
                1
            ]
        }
    ],
    "meshes": [
        {
            "primitives": [
                {
                    "attributes": {
                        "POSITION": 0,
                        "TEXCOORD_0": 1
                    },
                    "mode": 4,
                    "indices": 2,
                    "material": 0
                }
            ]
        }
    ],
    "materials": [
        {
            "pbrMetallicRoughness": {
                "baseColorFactor": [
                    1,
                    1,
                    1,
                    1
                ],
                "metallicFactor": 0,
                "roughnessFactor": 1,
                "baseColorTexture": {
                    "index": 0,
                    "texCoord": 0
                }
            },
            "alphaMode": "OPAQUE"
        }
    ],
    "textures": [
        {
            "source": 0,
            "sampler": 0
        }
    ],
    "images": [
        {
            "uri": "../textures/texture.png"
        }
    ],
    "samplers": [
        {
            "magFilter": 9729,
            "wrapS": 10497,
            "wrapT": 10497
        }
    ],
    "accessors": [
        {
            "bufferView": 0,
            "byteOffset": 0,
            "count": 221,
            "componentType": 5126,
            "type": "VEC3",
            "min": [
                0.088899999856948853,
                3.0606999397277832,
                0.038100000470876694
            ],
            "max": [
                0.19049999117851257,
                3.1368999481201172,
                0.063500002026557922
            ]
        },
        {
            "bufferView": 1,
            "byteOffset": 0,
            "count": 221,
            "componentType": 5126,
            "type": "VEC2"
        },
        {
            "bufferView": 2,
            "byteOffset": 0,
            "count": 366,
            "componentType": 5125,
            "type": "SCALAR"
        }
    ],
    "bufferViews": [
        {
            "buffer": 0,
            "byteOffset": 0,
            "byteLength": 2652,
            "byteStride": 12,
            "target": 34962
        },
        {
            "buffer": 0,
            "byteOffset": 2652,
            "byteLength": 1768,
            "byteStride": 8,
            "target": 34962
        },
        {
            "buffer": 0,
            "byteOffset": 4420,
            "byteLength": 1464,
            "target": 34963
        }
    ],
    "buffers": [
        {
            "byteLength": 5884,
            "uri": "double_extender_2.bin"
        }
    ]
}