{"asset":{"generator":"3D Builder","version":"2.0"},"scene":0,"scenes":[{"nodes":[0]}],"nodes":[{"mesh":0,"matrix":[0.99999994039535522,0,0,0,0,-1.1920928244535389E-7,-0.99999982118606567,0,0,0.99999982118606567,-1.1920928244535389E-7,0,0,0.01549999788403511,-1.8477439578390431E-9,1]}],"meshes":[{"primitives":[{"attributes":{"POSITION":0,"TEXCOORD_0":1},"mode":4,"indices":2,"material":0}]}],"materials":[{"pbrMetallicRoughness":{"baseColorFactor":[1,1,1,1],"metallicFactor":0,"roughnessFactor":1,"baseColorTexture":{"index":0,"texCoord":0}},"alphaMode":"OPAQUE"}],"textures":[{"source":0,"sampler":0}],"images":[{"uri":"texture.png"}],"samplers":[{"magFilter":9729,"wrapS":10497,"wrapT":10497}],"accessors":[{"bufferView":0,"byteOffset":0,"count":2706,"componentType":5126,"type":"VEC3","min":[0.001500000013038516,0.11950000375509262,-0.015500000678002834],"max":[0.014500000514090061,0.12650001049041748,0.0035000001080334187]},{"bufferView":1,"byteOffset":0,"count":2706,"componentType":5126,"type":"VEC2"},{"bufferView":2,"byteOffset":0,"count":4404,"componentType":5125,"type":"SCALAR"}],"bufferViews":[{"buffer":0,"byteOffset":0,"byteLength":32472,"byteStride":12,"target":34962},{"buffer":0,"byteOffset":32472,"byteLength":21648,"byteStride":8,"target":34962},{"buffer":0,"byteOffset":54120,"byteLength":17616,"target":34963}],"buffers":[{"byteLength":71736,"uri":"test.bin"}]}