{
    "asset": {
        "generator": "3D Builder",
        "version": "2.0"
    },
    "scene": 0,
    "scenes": [
        {
            "nodes": [
                0
            ]
        }
    ],
    "nodes": [
        {
            "mesh": 0,
            "matrix": [
                1,
                0,
                0,
                0,
                0,
                -1.1920928955078125E-7,
                -0.99999988079071045,
                0,
                0,
                0.99999988079071045,
                -1.1920928955078125E-7,
                0,
                0,
                0.025399995967745781,
                -3.0279159179968929E-9,
                1
            ]
        }
    ],
    "meshes": [
        {
            "primitives": [
                {
                    "attributes": {
                        "POSITION": 0,
                        "TEXCOORD_0": 5
                    },
                    "mode": 4,
                    "indices": 10,
                    "material": 0
                },
                {
                    "attributes": {
                        "POSITION": 1,
                        "TEXCOORD_0": 6
                    },
                    "mode": 4,
                    "indices": 11,
                    "material": 0
                },
                {
                    "attributes": {
                        "POSITION": 2,
                        "TEXCOORD_0": 7
                    },
                    "mode": 4,
                    "indices": 12,
                    "material": 1
                },
                {
                    "attributes": {
                        "POSITION": 3,
                        "TEXCOORD_0": 8
                    },
                    "mode": 4,
                    "indices": 13,
                    "material": 1
                },
                {
                    "attributes": {
                        "POSITION": 4,
                        "TEXCOORD_0": 9
                    },
                    "mode": 4,
                    "indices": 14,
                    "material": 1
                }
            ]
        }
    ],
    "materials": [
        {
            "pbrMetallicRoughness": {
                "baseColorFactor": [
                    1,
                    1,
                    1,
                    1
                ],
                "metallicFactor": 0,
                "roughnessFactor": 1,
                "baseColorTexture": {
                    "index": 0,
                    "texCoord": 0
                }
            },
            "alphaMode": "OPAQUE"
        },
        {
            "pbrMetallicRoughness": {
                "baseColorFactor": [
                    1,
                    1,
                    1,
                    1
                ],
                "metallicFactor": 0,
                "roughnessFactor": 1,
                "baseColorTexture": {
                    "index": 1,
                    "texCoord": 0
                }
            },
            "alphaMode": "OPAQUE"
        }
    ],
    "textures": [
        {
            "source": 0,
            "sampler": 0
        },
        {
            "source": 1,
            "sampler": 0
        }
    ],
    "images": [
        {
            "uri": "piston_bud1-RGB.png"
        },
        {
            "uri": "piston_bud1-RGBA.png"
        }
    ],
    "samplers": [
        {
            "magFilter": 9729,
            "wrapS": 10497,
            "wrapT": 10497
        }
    ],
    "accessors": [
        {
            "bufferView": 0,
            "byteOffset": 0,
            "count": 16,
            "componentType": 5126,
            "type": "VEC3",
            "min": [
                -0.025399999693036079,
                0.050799999386072159,
                0
            ],
            "max": [
                0,
                0.076200000941753387,
                0.025399999693036079
            ]
        },
        {
            "bufferView": 0,
            "byteOffset": 192,
            "count": 115,
            "componentType": 5126,
            "type": "VEC3",
            "min": [
                -0.025399999693036079,
                0,
                -0.025399999693036079
            ],
            "max": [
                0.050799999386072159,
                0.12700000405311584,
                0
            ]
        },
        {
            "bufferView": 0,
            "byteOffset": 1572,
            "count": 8,
            "componentType": 5126,
            "type": "VEC3",
            "min": [
                -0.025399999693036079,
                0.051196999847888947,
                -0.025399999693036079
            ],
            "max": [
                0.025399999693036079,
                0.10199699550867081,
                0
            ]
        },
        {
            "bufferView": 0,
            "byteOffset": 1668,
            "count": 20,
            "componentType": 5126,
            "type": "VEC3",
            "min": [
                0.034924998879432678,
                0.076200000941753387,
                -0.015875000506639481
            ],
            "max": [
                0.041274998337030411,
                0.093662500381469727,
                -0.0095250001177191734
            ]
        },
        {
            "bufferView": 0,
            "byteOffset": 1908,
            "count": 40,
            "componentType": 5126,
            "type": "VEC3",
            "min": [
                -0.015875000506639481,
                0.025399999693036079,
                -0.015875000506639481
            ],
            "max": [
                0.028383484110236168,
                0.12512776255607605,
                -0.0095250001177191734
            ]
        },
        {
            "bufferView": 1,
            "byteOffset": 0,
            "count": 16,
            "componentType": 5126,
            "type": "VEC2"
        },
        {
            "bufferView": 1,
            "byteOffset": 128,
            "count": 115,
            "componentType": 5126,
            "type": "VEC2"
        },
        {
            "bufferView": 1,
            "byteOffset": 1048,
            "count": 8,
            "componentType": 5126,
            "type": "VEC2"
        },
        {
            "bufferView": 1,
            "byteOffset": 1112,
            "count": 20,
            "componentType": 5126,
            "type": "VEC2"
        },
        {
            "bufferView": 1,
            "byteOffset": 1272,
            "count": 40,
            "componentType": 5126,
            "type": "VEC2"
        },
        {
            "bufferView": 2,
            "byteOffset": 0,
            "count": 30,
            "componentType": 5125,
            "type": "SCALAR"
        },
        {
            "bufferView": 2,
            "byteOffset": 120,
            "count": 222,
            "componentType": 5125,
            "type": "SCALAR"
        },
        {
            "bufferView": 2,
            "byteOffset": 1008,
            "count": 24,
            "componentType": 5125,
            "type": "SCALAR"
        },
        {
            "bufferView": 2,
            "byteOffset": 1104,
            "count": 30,
            "componentType": 5125,
            "type": "SCALAR"
        },
        {
            "bufferView": 2,
            "byteOffset": 1224,
            "count": 60,
            "componentType": 5125,
            "type": "SCALAR"
        }
    ],
    "bufferViews": [
        {
            "buffer": 0,
            "byteOffset": 0,
            "byteLength": 2388,
            "byteStride": 12,
            "target": 34962
        },
        {
            "buffer": 0,
            "byteOffset": 2388,
            "byteLength": 1592,
            "byteStride": 8,
            "target": 34962
        },
        {
            "buffer": 0,
            "byteOffset": 3980,
            "byteLength": 1464,
            "target": 34963
        }
    ],
    "buffers": [
        {
            "byteLength": 5444,
            "uri": "piston_bud1.bin"
        }
    ]
}